<?xml version="1.0" encoding="utf-8"?>
<!-- Generator: Adobe Illustrator 16.0.0, SVG Export Plug-In . SVG Version: 6.00 Build 0)  -->
<!DOCTYPE svg PUBLIC "-//W3C//DTD SVG 1.1//EN" "http://www.w3.org/Graphics/SVG/1.1/DTD/svg11.dtd">
<svg version="1.1" id="Layer_1" xmlns="http://www.w3.org/2000/svg" xmlns:xlink="http://www.w3.org/1999/xlink" x="0px" y="0px"
	 width="846.71px" height="82.349px" viewBox="0 0 846.71 82.349" enable-background="new 0 0 846.71 82.349" xml:space="preserve">
<g>
	<g>
		<path fill="#FFFFFF" d="M32.188,35.36l-1.977,0.52l-2.132,0.469l-1.925,0.312l-2.131,0.26l-2.08,0.156l-1.873,0.052
			c-3.051,0-5.771-0.434-8.163-1.3c-2.462-0.832-4.576-2.08-6.345-3.744c-1.768-1.629-3.137-3.64-4.107-6.032
			C0.485,23.764,0,21.13,0,18.148C0,16.415,0.26,14.699,0.78,13c0.52-1.698,1.265-3.258,2.236-4.68
			c1.004-1.456,2.217-2.756,3.639-3.9c2.08-1.56,4.299-2.686,6.656-3.38C15.772,0.347,18.649,0,21.944,0
			c2.218,0,4.332,0.208,6.344,0.624c1.109,0.208,2.253,0.468,3.432,0.78c0.346,0.069,0.762,0.174,1.248,0.312
			c0.381,0.104,0.745,0.191,1.092,0.261c0.069,0.034,0.226,0.087,0.469,0.155c0.449,0.14,0.849,0.261,1.195,0.364
			c-0.277,1.006-0.502,2.132-0.676,3.38l-0.416,4.108h-1.611V8.32c0-1.317-0.053-2.132-0.156-2.444
			c-0.104-0.277-0.383-0.589-0.832-0.936c-1.456-0.832-3.12-1.49-4.992-1.977c-1.907-0.52-3.831-0.779-5.771-0.779
			c-2.531,0-4.785,0.347-6.761,1.04c-1.872,0.658-3.502,1.682-4.888,3.067c-1.352,1.318-2.41,2.964-3.172,4.94
			c-0.729,1.906-1.092,4.107-1.092,6.604c0,1.353,0.104,2.548,0.312,3.588c0.138,1.006,0.433,2.099,0.884,3.276
			c0.797,2.046,1.941,3.848,3.432,5.408c1.525,1.595,3.293,2.791,5.305,3.588c2.045,0.832,4.281,1.248,6.708,1.248
			c2.321,0,5.2-0.606,8.632-1.82V31.46l0.156-4.107c0-1.248-0.191-2.114-0.572-2.601c-0.174-0.173-0.486-0.346-0.936-0.52
			c-0.383-0.139-0.885-0.208-1.508-0.208h-0.312l-1.717-0.053v-1.768l3.744,0.104l3.692,0.104l1.769-0.052l1.768-0.104h0.676h0.676
			l0.416-0.052v1.145l-1.039,0.415c-0.832,0.312-1.404,0.799-1.717,1.456c-0.312,0.659-0.468,1.855-0.468,3.589l0.052,1.247V31.2
			c0,0.485,0.069,1.022,0.209,1.612l0.207,1.403C35.03,34.494,33.853,34.875,32.188,35.36z"/>
		<path fill="#FFFFFF" d="M50.075,10.92c0.936-2.288,2.271-4.246,4.004-5.876c0.555-0.484,1.006-0.866,1.352-1.144
			c0.486-0.381,0.988-0.71,1.509-0.988c0.937-0.589,2.08-1.126,3.433-1.612C62.867,0.434,65.589,0,68.535,0
			c2.738,0,5.304,0.399,7.696,1.196c2.288,0.763,4.264,1.907,5.928,3.432c1.594,1.491,2.842,3.328,3.744,5.513
			c0.866,2.079,1.3,4.438,1.3,7.071c0,3.675-0.866,7.038-2.6,10.088c-1.699,3.052-4.091,5.443-7.177,7.177
			c-3.051,1.768-6.413,2.651-10.088,2.651c-2.842,0-5.391-0.416-7.644-1.248c-2.288-0.9-4.229-2.148-5.823-3.744
			c-1.664-1.664-2.947-3.622-3.849-5.876c-0.382-1.074-0.711-2.288-0.988-3.64c-0.208-1.248-0.312-2.6-0.312-4.056
			C48.724,15.791,49.173,13.243,50.075,10.92z M54.911,24.076c0.693,2.254,1.717,4.195,3.068,5.824
			c1.281,1.664,2.877,2.912,4.783,3.744c1.838,0.866,3.865,1.3,6.084,1.3c2.705,0,5.027-0.642,6.969-1.924
			c1.977-1.317,3.466-3.206,4.472-5.668c1.04-2.462,1.56-5.339,1.56-8.633c0-2.495-0.329-4.731-0.987-6.708
			c-0.694-2.079-1.664-3.848-2.912-5.304c-1.282-1.49-2.808-2.617-4.575-3.38c-1.769-0.762-3.711-1.144-5.824-1.144
			c-2.844,0-5.271,0.59-7.28,1.768c-2.08,1.214-3.658,2.895-4.732,5.044c-1.11,2.254-1.663,4.75-1.663,7.488
			C53.872,19.258,54.218,21.788,54.911,24.076z"/>
		<path fill="#FFFFFF" d="M110.396,34.216l2.184,0.053l2.859-0.053l2.393-0.052h0.729h0.571c0.173-0.034,0.347-0.052,0.521-0.052
			l1.664-0.208c0.936-0.104,1.94-0.312,3.016-0.624l1.561-5.98h1.664c-0.14,0.902-0.451,3.606-0.937,8.112l-0.104,0.832
			l-1.508,0.208l-1.092,0.104l-1.611,0.053h-0.729c-0.312,0-0.555,0.017-0.729,0.052l-2.496-0.104l-3.535-0.052l-8.008-0.104
			l-1.769,0.052l-2.132,0.104l-1.924,0.104v-1.144c0.762-0.416,1.316-0.763,1.664-1.04c0.207-0.174,0.397-0.503,0.572-0.988
			c0.104-0.416,0.155-1.074,0.155-1.977V5.616c0-0.937-0.122-1.629-0.364-2.08c-0.207-0.45-0.502-0.762-0.884-0.936
			c-0.347-0.139-0.866-0.261-1.56-0.364l-2.236-0.052V0.468l3.744,0.104l3.691,0.104l3.744-0.104l3.692-0.104v1.717h-0.937
			l-1.092,0.104l-0.988,0.052c-0.312,0.07-0.642,0.174-0.987,0.312c-0.382,0.174-0.642,0.503-0.78,0.988
			c-0.174,0.52-0.26,1.179-0.26,1.976V25.48v2.235v2.652l0.052,2.444v0.52v0.416l-0.052,0.364L110.396,34.216z"/>
		<path fill="#FFFFFF" d="M148.042,31.512c0,0.937,0.121,1.63,0.365,2.08c0.276,0.486,0.605,0.798,0.987,0.937
			c0.208,0.069,0.485,0.139,0.832,0.208l1.196,0.052l1.664,0.104v1.768l-3.692-0.104l-3.744-0.104l-3.692,0.104l-3.744,0.104v-1.768
			h0.729h0.676c0.139-0.034,0.277-0.053,0.416-0.053l1.248-0.155c0.416-0.034,0.867-0.295,1.353-0.78
			c0.416-0.485,0.624-1.282,0.624-2.393V5.616c0-0.937-0.104-1.629-0.312-2.08c-0.242-0.485-0.555-0.797-0.936-0.936l-0.26-0.104
			c-0.139-0.034-0.278-0.069-0.416-0.104c-0.348-0.069-0.643-0.104-0.885-0.104l-2.236-0.052V0.468l3.9,0.104l3.172,0.104
			l5.877-0.052l5.304-0.052l3.743-0.104c1.595,0,3.467,0.087,5.617,0.261c-0.035,0.139-0.104,0.416-0.209,0.832
			c-0.069,0.242-0.139,0.468-0.207,0.676c-0.104,0.451-0.209,1.075-0.312,1.872l-0.208,2.027l-0.104,2.393h-1.715
			c0-1.803-0.088-3.362-0.261-4.68c-1.214-0.416-2.375-0.693-3.483-0.832l-2.133-0.156l-2.6-0.104c-2.08,0-4.16,0.104-6.24,0.312
			c-0.208,2.011-0.312,3.986-0.312,5.928V16.9h0.885c0.381,0,0.693,0.018,0.936,0.052l2.652,0.156h2.08
			c0.346,0,0.658-0.018,0.936-0.053h0.937l1.196-0.104c0.346-0.034,0.728-0.138,1.144-0.312c0.45-0.174,0.745-0.434,0.884-0.78
			l0.208-0.676l0.104-0.937l0.052-1.092l0.052-0.884h1.717l-0.156,5.876l0.156,5.928h-1.717l-0.052-0.884l-0.052-1.092
			c0-0.832-0.191-1.474-0.572-1.925c-0.312-0.381-0.954-0.641-1.924-0.779l-1.977-0.104l-3.016-0.052
			c-2.012,0-3.502,0.069-4.473,0.208V31.512z"/>
		<path fill="#FFFFFF" d="M219.698,15.704l3.952,0.156l5.563-0.104l5.564-0.104l-0.312,1.664l-0.26,1.924l-1.716-0.26l-1.508-0.104
			l-4.056-0.208l0.207,1.196l0.053,1.04c0,1.525-0.33,2.981-0.988,4.368c-0.624,1.317-1.734,2.825-3.328,4.523
			c3.293,2.358,6.361,3.536,9.204,3.536c0.45,0,0.814-0.069,1.093-0.208c0.416-0.138,1.021-0.468,1.819-0.988l0.364,1.196
			c-1.526,1.04-3.016,2.185-4.473,3.432c-0.623,0.242-1.317,0.364-2.08,0.364c-1.352,0-2.721-0.33-4.107-0.987
			c-1.561-0.729-3.225-1.803-4.992-3.225c-1.074,0.832-2.201,1.612-3.38,2.34c-0.694,0.348-1.231,0.59-1.612,0.729l-1.768,0.624
			c-1.145,0.346-2.444,0.52-3.9,0.52c-1.422,0-2.808-0.243-4.16-0.728c-0.416-0.173-1.006-0.502-1.768-0.988
			c-0.764-0.485-1.3-0.884-1.611-1.196c-0.972-1.005-1.699-2.132-2.185-3.38c-0.521-1.316-0.78-2.721-0.78-4.212
			c0-1.629,0.346-3.102,1.04-4.42c0.728-1.317,1.698-2.496,2.912-3.536c0.381-0.346,0.987-0.832,1.819-1.456
			c0.242-0.173,0.711-0.502,1.404-0.987c0.242-0.174,0.502-0.347,0.78-0.521l-0.728-2.028l-0.469-1.664
			c0-0.034-0.018-0.173-0.052-0.416c-0.069-0.416-0.122-0.728-0.155-0.936c-0.035-0.312-0.053-0.814-0.053-1.508
			c0-1.421,0.156-2.514,0.469-3.276c0.312-0.797,0.9-1.577,1.768-2.34c1.213-1.109,2.305-2.01,3.275-2.704
			c0.416-0.277,0.901-0.485,1.457-0.624C212.452,0.07,213.024,0,213.718,0c0.902,0,1.699,0.191,2.393,0.572
			c0.729,0.382,1.266,0.919,1.611,1.612c0.382,0.832,0.572,1.682,0.572,2.548c0,1.282-0.26,2.479-0.779,3.588
			c-0.243,0.555-0.572,1.109-0.988,1.664c-0.451,0.624-0.936,1.195-1.456,1.716c-0.901,1.006-2.306,2.184-4.212,3.536
			c0.936,1.768,1.941,3.415,3.016,4.939c1.248,1.734,2.444,3.225,3.588,4.473c1.109,1.248,2.41,2.565,3.9,3.952
			c0.866-1.04,1.508-2.08,1.924-3.12c0.416-1.006,0.624-2.132,0.624-3.38c0-1.145-0.104-1.941-0.312-2.393
			c-0.209-0.485-0.625-0.832-1.248-1.04l-1.196-0.208l-1.819-0.052h-1.093l-0.155-0.416L219.698,15.704z M212.263,25.116
			c-1.699-2.253-3.328-4.767-4.889-7.54c-1.595,1.144-2.703,2.254-3.328,3.328c-0.728,1.144-1.092,2.444-1.092,3.899
			c0,1.699,0.381,3.242,1.145,4.629c0.728,1.352,1.785,2.479,3.172,3.38c1.386,0.866,2.895,1.3,4.523,1.3
			c1.906,0,4.021-0.85,6.344-2.548C215.954,29.554,213.995,27.404,212.263,25.116z M213.511,9.725
			c0.762-1.179,1.144-2.427,1.144-3.744c0-0.937-0.26-1.733-0.78-2.393c-0.52-0.658-1.127-0.987-1.82-0.987
			c-1.074,0-1.906,0.398-2.496,1.195c-0.59,0.798-0.883,1.959-0.883,3.484v0.78c0,0.312,0.017,0.537,0.052,0.676l0.26,1.248
			c0.208,1.109,0.537,2.271,0.987,3.483C211.568,12.151,212.747,10.903,213.511,9.725z"/>
		<path fill="#FFFFFF" d="M287.559,16.225c0.521,0.069,1.108,0.174,1.769,0.312c0.449,0.104,1.178,0.347,2.184,0.728
			c0.033,0.035,0.104,0.07,0.208,0.104c1.524,0.659,2.669,1.595,3.432,2.808c0.728,1.18,1.093,2.636,1.093,4.368
			c0,2.323-0.607,4.403-1.82,6.24c-1.283,1.872-3.034,3.294-5.252,4.264c-2.219,1.04-4.768,1.561-7.645,1.561l-1.977-0.053
			l-2.443-0.104h-1.977l-4.783,0.208v-1.144c0.832-0.45,1.404-0.798,1.716-1.04c0.208-0.174,0.397-0.469,0.572-0.885
			c0.069-0.554,0.104-1.248,0.104-2.08V5.616c0-0.937-0.104-1.629-0.312-2.08c-0.243-0.485-0.555-0.797-0.936-0.936
			c-0.035,0-0.123-0.034-0.261-0.104c-0.208-0.034-0.364-0.069-0.468-0.104c-0.348-0.069-0.624-0.104-0.832-0.104l-2.236-0.052
			V0.468l2.184,0.053l5.252,0.155l3.173-0.052l3.276-0.104h1.56l1.612-0.053c2.564,0,4.818,0.503,6.76,1.509
			s2.912,2.703,2.912,5.096c0,1.525-0.278,2.826-0.832,3.899c-0.555,1.11-1.475,2.099-2.756,2.965
			c-1.215,0.798-2.844,1.543-4.889,2.235C286.675,16.172,287.212,16.19,287.559,16.225z M279.759,15.548
			c3.293,0,5.701-0.554,7.228-1.664c1.525-1.108,2.288-2.912,2.288-5.407c0-3.952-2.548-5.929-7.645-5.929l-1.871,0.104
			c-0.139,0-0.399,0.035-0.78,0.104h-0.155c-0.175,0.035-0.348,0.053-0.521,0.053c-0.175,0.034-0.347,0.069-0.521,0.104l-0.156,2.34
			l-0.104,2.704l-0.052,4.316v3.172L279.759,15.548z M281.475,34.424c1.976,0,3.657-0.363,5.044-1.092
			c1.421-0.693,2.514-1.733,3.275-3.12c0.729-1.352,1.093-2.98,1.093-4.888c0-3.05-0.954-5.113-2.86-6.188
			c-1.906-1.073-4.455-1.611-7.645-1.611c-0.901,0-1.871,0.035-2.911,0.104v8.996l0.052,3.017l0.053,3.016v0.624l-0.104,0.78
			C278.96,34.303,280.296,34.424,281.475,34.424z"/>
		<path fill="#FFFFFF" d="M333.734,0.468l3.068,0.104l3.172,0.104l6.188-0.208v1.769l-2.027,0.052l-0.988,0.052
			c-0.243,0.035-0.555,0.14-0.936,0.312c-0.416,0.174-0.694,0.468-0.832,0.884c-0.174,0.451-0.261,1.144-0.261,2.08V20.28
			l-0.052,3.275l-0.052,1.925v0.728c0,0.104-0.018,0.26-0.052,0.468c0,0.243-0.019,0.416-0.053,0.521
			c-0.034,0.347-0.139,0.867-0.312,1.56c-0.139,0.764-0.416,1.526-0.832,2.288c-0.139,0.243-0.347,0.555-0.624,0.937
			c-0.347,0.416-0.624,0.745-0.832,0.987c-1.248,1.388-2.843,2.428-4.784,3.12c-2.011,0.693-4.264,1.04-6.76,1.04
			c-3.328,0-6.171-0.52-8.528-1.56c-2.392-1.074-3.97-2.496-4.731-4.265l-0.364-0.936l-0.312-0.936l-0.156-1.093l-0.104-1.3v-2.236
			c0-0.381-0.018-0.728-0.052-1.04v-0.987V18.72V5.616c0-0.937-0.122-1.629-0.364-2.08c-0.208-0.485-0.537-0.797-0.987-0.936
			l-0.729-0.208l-0.676-0.104l-2.288-0.052V0.468l1.56,0.053l2.185,0.052l3.691,0.104l1.561-0.052l2.184-0.052l3.692-0.104v1.769
			l-1.092,0.052c-1.145,0-1.959,0.052-2.444,0.156c-0.416,0.104-0.798,0.398-1.144,0.884c-0.243,0.451-0.364,1.214-0.364,2.288
			v15.652l0.052,2.235L317.406,26l0.053,1.404c0.034,0.174,0.138,0.503,0.312,0.988l0.052,0.26c0.208,0.728,0.502,1.335,0.885,1.819
			c0.797,1.11,1.976,1.942,3.535,2.496c1.63,0.624,3.467,0.937,5.513,0.937c2.045,0,3.917-0.312,5.615-0.937
			c1.664-0.554,2.895-1.386,3.692-2.496c0.589-0.865,1.022-2.062,1.3-3.588c0.277-1.594,0.416-3.812,0.416-6.655V5.616
			c0-0.832-0.087-1.508-0.26-2.028c-0.208-0.484-0.468-0.797-0.78-0.936l-0.832-0.26c-0.277-0.069-0.537-0.104-0.779-0.104
			l-2.393-0.052V0.468z"/>
		<path fill="#FFFFFF" d="M379.391,5.2l-0.104,1.56l-0.104,2.444h-1.769V7.176c0-3.327-2.565-4.991-7.696-4.991
			c-1.906,0-3.483,0.277-4.731,0.832c-1.283,0.555-2.323,1.387-3.12,2.495c-0.798,1.11-1.196,2.358-1.196,3.744
			c0,2.219,0.606,3.796,1.82,4.732c1.178,0.971,2.86,1.612,5.044,1.924l6.448,0.729c2.184,0.208,3.865,0.693,5.044,1.455
			c0.901,0.556,1.646,1.422,2.236,2.601c0.589,1.214,0.884,2.427,0.884,3.64c0,1.872-0.364,3.588-1.092,5.148
			c-0.729,1.49-1.804,2.843-3.225,4.056c-1.422,1.179-3.086,2.08-4.992,2.704c-1.976,0.589-4.056,0.884-6.239,0.884
			c-1.561,0-2.704-0.069-3.433-0.208h-0.676l-0.312-0.052c-0.277-0.07-0.485-0.122-0.623-0.156l-1.561-0.363
			c-0.312-0.104-0.728-0.242-1.248-0.416l-0.364-0.104c-0.277-0.069-0.642-0.208-1.092-0.416l-0.676-0.26
			c0.034-0.45,0.086-0.918,0.156-1.404c0-0.242,0.017-0.45,0.052-0.624v-0.156c0.069-0.589,0.104-0.987,0.104-1.195l0.104-4.42
			h1.768v1.3c0,1.352,0.053,2.235,0.156,2.651c0.104,0.451,0.381,0.885,0.832,1.301c0.937,0.728,2.062,1.3,3.38,1.716
			c1.353,0.416,2.843,0.624,4.473,0.624c1.108,0,2.062-0.069,2.859-0.208c0.832-0.139,1.646-0.381,2.444-0.729
			c1.56-0.692,2.738-1.664,3.536-2.912c0.832-1.213,1.248-2.616,1.248-4.212c0-2.634-0.851-4.315-2.549-5.044
			c-1.663-0.658-4.299-1.178-7.903-1.56c-3.71-0.381-6.448-1.145-8.216-2.288c-1.872-1.213-2.809-3.501-2.809-6.864
			c0-1.732,0.312-3.293,0.937-4.68c0.624-1.317,1.56-2.479,2.808-3.484c1.213-0.936,2.669-1.664,4.368-2.184
			c0.624-0.208,1.525-0.398,2.704-0.572C367.933,0.07,368.973,0,370.187,0c3.154,0,6.413,0.729,9.775,2.185
			C379.615,3.328,379.425,4.334,379.391,5.2z"/>
		<path fill="#FFFFFF" d="M407.626,2.236l-2.028,0.052l-0.988,0.052c-0.312,0.07-0.642,0.174-0.987,0.312
			c-0.383,0.174-0.643,0.503-0.78,0.988c-0.174,0.52-0.26,1.179-0.26,1.976v25.896c0,0.937,0.121,1.63,0.363,2.08
			c0.277,0.486,0.606,0.798,0.988,0.937c0.208,0.069,0.485,0.139,0.832,0.208l1.196,0.052l1.664,0.104v1.768l-3.692-0.104
			l-3.744-0.104l-3.691,0.104l-3.744,0.104v-1.768h0.728h0.676c0.139-0.034,0.277-0.053,0.416-0.053l1.248-0.155
			c0.416-0.034,0.866-0.295,1.353-0.78c0.416-0.485,0.624-1.282,0.624-2.393V5.616c0-0.937-0.104-1.629-0.312-2.08
			c-0.243-0.485-0.555-0.797-0.936-0.936c-0.035,0-0.122-0.034-0.26-0.104c-0.208-0.034-0.364-0.069-0.469-0.104
			c-0.347-0.069-0.624-0.104-0.832-0.104l-2.235-0.052V0.468l3.744,0.104l3.691,0.104l1.561-0.052l2.184-0.052l3.692-0.104V2.236z"
			/>
		<path fill="#FFFFFF" d="M425.722,31.512c0,0.937,0.121,1.63,0.364,2.08c0.276,0.486,0.605,0.798,0.987,0.937
			c0.208,0.069,0.485,0.139,0.832,0.208l1.196,0.052l1.664,0.104v1.768l-3.016-0.104l-3.173-0.104l-6.239,0.208v-1.768h0.728h0.676
			c0.139-0.034,0.277-0.053,0.416-0.053l1.248-0.155c0.416-0.034,0.866-0.295,1.353-0.78c0.416-0.485,0.624-1.282,0.624-2.393V5.616
			c0-0.937-0.122-1.629-0.364-2.08c-0.139-0.45-0.434-0.762-0.884-0.936c-0.347-0.139-0.867-0.261-1.561-0.364l-2.235-0.052V0.468
			l3.952,0.104l3.327,0.104l0.937-0.104l0.884-0.104l5.044,6.448l4.316,5.408l8.684,10.66l2.08,2.6l2.652,3.225l2.027,2.132V5.616
			c0-1.005-0.069-1.664-0.208-1.976c-0.139-0.382-0.434-0.711-0.884-0.988c-0.174-0.139-0.434-0.226-0.78-0.26l-0.363-0.053
			c-0.174-0.034-0.295-0.052-0.364-0.052h-0.416l-1.092-0.104h-0.937V0.468l3.068,0.104l3.172,0.104l6.188-0.208v1.717h-0.937
			l-1.092,0.104l-0.988,0.052c-0.312,0.07-0.642,0.174-0.987,0.312c-0.348,0.139-0.624,0.468-0.832,0.988
			c-0.174,0.52-0.261,1.179-0.261,1.976v20.592l0.053,2.601l0.104,2.548l0.052,2.34l0.261,3.588
			c-0.764-0.07-1.596-0.208-2.496-0.416c-0.764-0.139-1.388-0.295-1.872-0.468c-0.486-0.347-0.884-0.693-1.196-1.04l-1.144-1.353
			l-0.937-1.195l-3.38-4.057L425.722,6.24V31.512z"/>
		<path fill="#FFFFFF" d="M480.581,25.636v3.536c0,2.427,0.018,3.692,0.052,3.796v0.572l0.053,0.572
			c0.208,0,0.605,0.018,1.195,0.052c0.521,0.035,0.814,0.052,0.884,0.052c0.658,0.035,1.335,0.053,2.028,0.053l3.692,0.104
			c2.01,0,3.483-0.052,4.42-0.156c1.005-0.104,2.045-0.363,3.12-0.779l0.832-3.12l0.468-2.444h1.716
			c-0.451,3.259-0.676,6.102-0.676,8.528c-1.977,0.208-3.831,0.312-5.564,0.312l-3.483-0.052l-4.836-0.104l-6.5-0.104l-5.252,0.156
			l-2.185,0.052v-1.768h0.676h0.729c0.138-0.034,0.277-0.053,0.416-0.053l1.248-0.155c0.416-0.034,0.866-0.295,1.352-0.78
			c0.416-0.485,0.624-1.282,0.624-2.393V5.616c0-0.937-0.122-1.629-0.363-2.08c-0.208-0.45-0.503-0.762-0.885-0.936
			c-0.347-0.139-0.866-0.261-1.56-0.364l-2.236-0.052V0.468l3.9,0.104l3.38,0.104l7.488-0.104l7.436-0.104l1.82,0.104l3.796,0.156
			c-0.07,0.242-0.139,0.52-0.208,0.832c-0.104,0.312-0.191,0.59-0.26,0.832c-0.14,0.555-0.243,1.144-0.312,1.768l-0.208,2.028
			l-0.052,2.34h-1.716c0-1.733-0.087-3.293-0.261-4.68c-1.109-0.416-2.235-0.693-3.38-0.832l-2.132-0.156l-2.704-0.104
			c-2.53,0-4.68,0.104-6.447,0.312l-0.053,4.315l-0.052,4.368V16.9h0.832c0.381,0,0.693,0.018,0.936,0.052l2.704,0.156h2.133
			c0.312,0,0.605-0.018,0.884-0.053h0.936l1.196-0.104c0.346-0.034,0.728-0.138,1.144-0.312c0.45-0.174,0.745-0.434,0.885-0.78
			l0.208-0.676l0.104-0.937l0.104-1.092v-0.884h1.716l-0.156,5.876l0.156,5.928h-1.716v-0.884l-0.104-1.092
			c0-0.832-0.19-1.474-0.572-1.925c-0.242-0.346-0.884-0.605-1.924-0.779l-1.976-0.104l-3.017-0.052
			c-2.046,0-3.535,0.069-4.472,0.208V25.636z"/>
		<path fill="#FFFFFF" d="M533.101,5.2l-0.104,1.56l-0.104,2.444h-1.769V7.176c0-3.327-2.565-4.991-7.696-4.991
			c-1.906,0-3.483,0.277-4.731,0.832c-1.283,0.555-2.323,1.387-3.12,2.495c-0.798,1.11-1.196,2.358-1.196,3.744
			c0,2.219,0.606,3.796,1.82,4.732c1.178,0.971,2.86,1.612,5.044,1.924l6.448,0.729c2.184,0.208,3.865,0.693,5.044,1.455
			c0.901,0.556,1.646,1.422,2.236,2.601c0.589,1.214,0.884,2.427,0.884,3.64c0,1.872-0.364,3.588-1.092,5.148
			c-0.729,1.49-1.804,2.843-3.225,4.056c-1.422,1.179-3.086,2.08-4.992,2.704c-1.976,0.589-4.056,0.884-6.239,0.884
			c-1.561,0-2.704-0.069-3.433-0.208H516.2l-0.312-0.052c-0.277-0.07-0.485-0.122-0.623-0.156l-1.561-0.363
			c-0.312-0.104-0.728-0.242-1.248-0.416l-0.364-0.104c-0.277-0.069-0.642-0.208-1.092-0.416l-0.676-0.26
			c0.034-0.45,0.086-0.918,0.156-1.404c0-0.242,0.017-0.45,0.052-0.624v-0.156c0.069-0.589,0.104-0.987,0.104-1.195l0.104-4.42
			h1.768v1.3c0,1.352,0.053,2.235,0.156,2.651c0.104,0.451,0.381,0.885,0.832,1.301c0.937,0.728,2.062,1.3,3.38,1.716
			c1.353,0.416,2.843,0.624,4.473,0.624c1.108,0,2.062-0.069,2.859-0.208c0.832-0.139,1.646-0.381,2.444-0.729
			c1.56-0.692,2.738-1.664,3.536-2.912c0.832-1.213,1.248-2.616,1.248-4.212c0-2.634-0.851-4.315-2.549-5.044
			c-1.663-0.658-4.299-1.178-7.903-1.56c-3.71-0.381-6.448-1.145-8.216-2.288c-1.872-1.213-2.809-3.501-2.809-6.864
			c0-1.732,0.312-3.293,0.937-4.68c0.624-1.317,1.56-2.479,2.808-3.484c1.213-0.936,2.669-1.664,4.368-2.184
			c0.624-0.208,1.525-0.398,2.704-0.572C521.643,0.07,522.683,0,523.896,0c3.154,0,6.413,0.729,9.775,2.185
			C533.325,3.328,533.135,4.334,533.101,5.2z"/>
		<path fill="#FFFFFF" d="M568.877,5.2l-0.104,1.56l-0.104,2.444H566.9V7.176c0-3.327-2.565-4.991-7.696-4.991
			c-1.906,0-3.483,0.277-4.731,0.832c-1.283,0.555-2.323,1.387-3.12,2.495c-0.798,1.11-1.196,2.358-1.196,3.744
			c0,2.219,0.606,3.796,1.82,4.732c1.178,0.971,2.86,1.612,5.044,1.924l6.448,0.729c2.184,0.208,3.865,0.693,5.044,1.455
			c0.901,0.556,1.646,1.422,2.236,2.601c0.589,1.214,0.884,2.427,0.884,3.64c0,1.872-0.364,3.588-1.092,5.148
			c-0.729,1.49-1.804,2.843-3.225,4.056c-1.422,1.179-3.086,2.08-4.992,2.704c-1.976,0.589-4.056,0.884-6.239,0.884
			c-1.561,0-2.704-0.069-3.433-0.208h-0.676l-0.312-0.052c-0.277-0.07-0.485-0.122-0.623-0.156l-1.561-0.363
			c-0.312-0.104-0.728-0.242-1.248-0.416l-0.364-0.104c-0.277-0.069-0.642-0.208-1.092-0.416l-0.676-0.26
			c0.034-0.45,0.086-0.918,0.156-1.404c0-0.242,0.017-0.45,0.052-0.624v-0.156c0.069-0.589,0.104-0.987,0.104-1.195l0.104-4.42
			h1.768v1.3c0,1.352,0.053,2.235,0.156,2.651c0.104,0.451,0.381,0.885,0.832,1.301c0.937,0.728,2.062,1.3,3.38,1.716
			c1.353,0.416,2.843,0.624,4.473,0.624c1.108,0,2.062-0.069,2.859-0.208c0.832-0.139,1.646-0.381,2.444-0.729
			c1.56-0.692,2.738-1.664,3.536-2.912c0.832-1.213,1.248-2.616,1.248-4.212c0-2.634-0.851-4.315-2.549-5.044
			c-1.663-0.658-4.299-1.178-7.903-1.56c-3.71-0.381-6.448-1.145-8.216-2.288c-1.872-1.213-2.809-3.501-2.809-6.864
			c0-1.732,0.312-3.293,0.937-4.68c0.624-1.317,1.56-2.479,2.808-3.484c1.213-0.936,2.669-1.664,4.368-2.184
			c0.624-0.208,1.525-0.398,2.704-0.572C557.419,0.07,558.459,0,559.673,0c3.154,0,6.413,0.729,9.775,2.185
			C569.102,3.328,568.911,4.334,568.877,5.2z"/>
		<path fill="#FFFFFF" d="M623.476,16.225c0.52,0.069,1.109,0.174,1.768,0.312c0.45,0.104,1.179,0.347,2.185,0.728
			c0.034,0.035,0.104,0.07,0.208,0.104c1.524,0.659,2.669,1.595,3.432,2.808c0.729,1.18,1.092,2.636,1.092,4.368
			c0,2.323-0.606,4.403-1.819,6.24c-1.283,1.872-3.034,3.294-5.252,4.264c-2.22,1.04-4.768,1.561-7.645,1.561l-1.976-0.053
			l-2.444-0.104h-1.976l-4.784,0.208v-1.144c0.832-0.45,1.404-0.798,1.716-1.04c0.208-0.174,0.398-0.469,0.572-0.885
			c0.068-0.554,0.104-1.248,0.104-2.08V5.616c0-0.937-0.104-1.629-0.312-2.08c-0.243-0.485-0.555-0.797-0.937-0.936
			c-0.034,0-0.121-0.034-0.26-0.104c-0.208-0.034-0.364-0.069-0.468-0.104c-0.347-0.069-0.624-0.104-0.832-0.104l-2.236-0.052V0.468
			l2.185,0.053l5.252,0.155l3.172-0.052l3.275-0.104h1.561l1.612-0.053c2.564,0,4.817,0.503,6.76,1.509
			c1.94,1.006,2.912,2.703,2.912,5.096c0,1.525-0.278,2.826-0.832,3.899c-0.556,1.11-1.475,2.099-2.756,2.965
			c-1.214,0.798-2.844,1.543-4.889,2.235C622.592,16.172,623.129,16.19,623.476,16.225z M615.676,15.548
			c3.293,0,5.702-0.554,7.228-1.664c1.525-1.108,2.288-2.912,2.288-5.407c0-3.952-2.548-5.929-7.644-5.929l-1.872,0.104
			c-0.14,0-0.399,0.035-0.78,0.104h-0.156c-0.174,0.035-0.347,0.053-0.52,0.053c-0.174,0.034-0.347,0.069-0.521,0.104l-0.155,2.34
			l-0.104,2.704l-0.052,4.316v3.172L615.676,15.548z M617.392,34.424c1.976,0,3.657-0.363,5.044-1.092
			c1.421-0.693,2.513-1.733,3.276-3.12c0.728-1.352,1.092-2.98,1.092-4.888c0-3.05-0.954-5.113-2.86-6.188
			c-1.907-1.073-4.455-1.611-7.644-1.611c-0.902,0-1.872,0.035-2.912,0.104v8.996l0.052,3.017l0.052,3.016v0.624l-0.104,0.78
			C614.878,34.303,616.213,34.424,617.392,34.424z"/>
		<path fill="#FFFFFF" d="M669.651,0.468l3.068,0.104l3.172,0.104l6.188-0.208v1.769l-2.027,0.052l-0.988,0.052
			c-0.243,0.035-0.555,0.14-0.936,0.312c-0.416,0.174-0.694,0.468-0.832,0.884c-0.174,0.451-0.261,1.144-0.261,2.08V20.28
			l-0.052,3.275l-0.052,1.925v0.728c0,0.104-0.018,0.26-0.052,0.468c0,0.243-0.019,0.416-0.053,0.521
			c-0.034,0.347-0.139,0.867-0.312,1.56c-0.139,0.764-0.416,1.526-0.832,2.288c-0.139,0.243-0.347,0.555-0.624,0.937
			c-0.347,0.416-0.624,0.745-0.832,0.987c-1.248,1.388-2.843,2.428-4.784,3.12c-2.011,0.693-4.264,1.04-6.76,1.04
			c-3.328,0-6.171-0.52-8.528-1.56c-2.392-1.074-3.97-2.496-4.731-4.265l-0.364-0.936l-0.312-0.936l-0.156-1.093l-0.104-1.3v-2.236
			c0-0.381-0.018-0.728-0.052-1.04v-0.987V18.72V5.616c0-0.937-0.122-1.629-0.364-2.08c-0.208-0.485-0.537-0.797-0.987-0.936
			l-0.729-0.208l-0.676-0.104l-2.288-0.052V0.468l1.56,0.053l2.185,0.052l3.691,0.104l1.561-0.052l2.184-0.052l3.692-0.104v1.769
			l-1.092,0.052c-1.145,0-1.959,0.052-2.444,0.156c-0.416,0.104-0.798,0.398-1.144,0.884c-0.243,0.451-0.364,1.214-0.364,2.288
			v15.652l0.052,2.235L653.323,26l0.053,1.404c0.034,0.174,0.138,0.503,0.312,0.988l0.052,0.26c0.208,0.728,0.502,1.335,0.885,1.819
			c0.797,1.11,1.976,1.942,3.535,2.496c1.63,0.624,3.467,0.937,5.513,0.937c2.045,0,3.917-0.312,5.615-0.937
			c1.664-0.554,2.895-1.386,3.692-2.496c0.589-0.865,1.022-2.062,1.3-3.588c0.277-1.594,0.416-3.812,0.416-6.655V5.616
			c0-0.832-0.087-1.508-0.26-2.028c-0.208-0.484-0.468-0.797-0.78-0.936l-0.832-0.26c-0.277-0.069-0.537-0.104-0.779-0.104
			l-2.393-0.052V0.468z"/>
		<path fill="#FFFFFF" d="M700.02,34.893h0.779h0.521c0.138-0.034,0.294-0.053,0.468-0.053c0.312,0,0.572-0.017,0.78-0.052
			c0.104-0.034,0.242-0.069,0.416-0.104c0.173,0,0.312-0.018,0.416-0.053c0.312-0.068,0.676-0.312,1.092-0.728
			c0.381-0.485,0.572-1.282,0.572-2.393V10.66V8.269L704.959,5.2l-0.052-2.392h-2.548c-0.416,0-0.815,0.018-1.196,0.052h-1.352
			h-1.301c-0.382,0.035-0.85,0.052-1.403,0.052c-0.624,0-1.04,0.018-1.248,0.052c-0.208,0.035-0.416,0.122-0.624,0.261
			c-0.104,0.069-0.226,0.295-0.364,0.676l-0.052,0.052l-0.208,1.352l-0.208,1.717l-0.156,1.768h-1.612l0.053-3.016
			c0-1.145-0.104-2.912-0.312-5.305l1.353,0.053l6.239,0.104l3.173,0.052h2.703h1.612h3.796l3.744-0.052l6.188-0.104l1.352-0.053
			V0.78v1.092c-0.035,0.174-0.052,0.364-0.052,0.572s-0.018,0.398-0.052,0.572c0,0.382-0.035,0.884-0.104,1.508
			c-0.035,0.242-0.052,0.45-0.052,0.624c0,0.312-0.018,0.52-0.052,0.624v1.456l0.052,1.56h-1.561l-0.208-2.912
			c0-0.485-0.052-0.849-0.155-1.092c0-0.069-0.019-0.156-0.053-0.26c0-0.139-0.018-0.226-0.052-0.261l-0.104-0.155l-0.156-0.312
			c-0.243-0.554-0.659-0.832-1.248-0.832l-2.548-0.052l-6.136-0.104l-0.104,3.483l-0.104,4.368v20.852
			c0,1.214,0.189,2.063,0.571,2.549c0.381,0.382,1.005,0.624,1.872,0.728l2.601,0.104v1.768l-3.692-0.104l-3.744-0.104l-3.691,0.104
			l-3.744,0.104V34.893z"/>
		<path fill="#FFFFFF" d="M745.362,34.216l2.185,0.053l2.86-0.053l2.392-0.052h0.728h0.572c0.173-0.034,0.347-0.052,0.521-0.052
			l1.664-0.208c0.936-0.104,1.94-0.312,3.016-0.624l1.56-5.98h1.664c-0.139,0.902-0.45,3.606-0.936,8.112l-0.104,0.832l-1.508,0.208
			l-1.092,0.104l-1.612,0.053h-0.728c-0.312,0-0.555,0.017-0.729,0.052l-2.496-0.104l-3.535-0.052l-8.009-0.104l-1.768,0.052
			l-2.132,0.104l-1.924,0.104v-1.144c0.762-0.416,1.316-0.763,1.664-1.04c0.208-0.174,0.397-0.503,0.571-0.988
			c0.104-0.416,0.156-1.074,0.156-1.977V5.616c0-0.937-0.122-1.629-0.364-2.08c-0.208-0.45-0.503-0.762-0.884-0.936
			c-0.347-0.139-0.867-0.261-1.56-0.364l-2.236-0.052V0.468l3.744,0.104l3.691,0.104l3.744-0.104l3.692-0.104v1.717h-0.937
			l-1.092,0.104l-0.988,0.052c-0.312,0.07-0.642,0.174-0.987,0.312c-0.382,0.174-0.643,0.503-0.78,0.988
			c-0.174,0.52-0.26,1.179-0.26,1.976V25.48v2.235v2.652l0.052,2.444v0.52v0.416l-0.052,0.364L745.362,34.216z"/>
		<path fill="#FFFFFF" d="M783.635,25.636v3.536c0,2.427,0.018,3.692,0.052,3.796v0.572l0.053,0.572
			c0.208,0,0.605,0.018,1.195,0.052c0.521,0.035,0.814,0.052,0.884,0.052c0.658,0.035,1.335,0.053,2.028,0.053l3.692,0.104
			c2.01,0,3.483-0.052,4.42-0.156c1.005-0.104,2.045-0.363,3.12-0.779l0.832-3.12l0.468-2.444h1.716
			c-0.451,3.259-0.676,6.102-0.676,8.528c-1.977,0.208-3.831,0.312-5.564,0.312l-3.483-0.052l-4.836-0.104l-6.5-0.104l-5.252,0.156
			l-2.185,0.052v-1.768h0.676h0.729c0.138-0.034,0.277-0.053,0.416-0.053l1.248-0.155c0.416-0.034,0.866-0.295,1.352-0.78
			c0.416-0.485,0.624-1.282,0.624-2.393V5.616c0-0.937-0.122-1.629-0.363-2.08c-0.208-0.45-0.503-0.762-0.885-0.936
			c-0.347-0.139-0.866-0.261-1.56-0.364l-2.236-0.052V0.468l3.9,0.104l3.38,0.104l7.488-0.104l7.436-0.104l1.82,0.104l3.796,0.156
			c-0.07,0.242-0.139,0.52-0.208,0.832c-0.104,0.312-0.191,0.59-0.26,0.832c-0.14,0.555-0.243,1.144-0.312,1.768l-0.208,2.028
			l-0.052,2.34h-1.716c0-1.733-0.087-3.293-0.261-4.68c-1.109-0.416-2.235-0.693-3.38-0.832l-2.132-0.156l-2.704-0.104
			c-2.53,0-4.68,0.104-6.447,0.312l-0.053,4.315l-0.052,4.368V16.9h0.832c0.381,0,0.693,0.018,0.936,0.052l2.704,0.156h2.133
			c0.312,0,0.605-0.018,0.884-0.053h0.936l1.196-0.104c0.346-0.034,0.728-0.138,1.144-0.312c0.45-0.174,0.745-0.434,0.885-0.78
			l0.208-0.676l0.104-0.937l0.104-1.092v-0.884h1.716l-0.156,5.876l0.156,5.928h-1.716v-0.884l-0.104-1.092
			c0-0.832-0.19-1.474-0.572-1.925c-0.242-0.346-0.884-0.605-1.924-0.779l-1.976-0.104l-3.017-0.052
			c-2.046,0-3.535,0.069-4.472,0.208V25.636z"/>
		<path fill="#FFFFFF" d="M840.782,30.264l1.819,2.549c0.382,0.485,0.901,0.936,1.561,1.352c0.589,0.312,1.438,0.555,2.548,0.729
			v1.768h-0.832h-0.624c-0.174-0.035-0.33-0.052-0.468-0.052c-0.416,0-0.971-0.053-1.664-0.156l-3.588,0.208l-8.685-12.168
			c-1.63-2.392-3.38-4.576-5.252-6.552l0.26-0.832l1.977,0.104c2.01,0,3.674-0.329,4.992-0.987c1.316-0.624,2.374-1.561,3.172-2.809
			c0.728-1.248,1.092-2.704,1.092-4.368c0-1.352-0.312-2.548-0.936-3.588c-0.59-1.005-1.509-1.819-2.757-2.443
			c-0.45-0.208-1.092-0.398-1.924-0.572c-0.174-0.034-0.347-0.069-0.52-0.104c-0.174,0-0.347-0.017-0.521-0.052
			c-0.242-0.034-0.676-0.052-1.3-0.052c-1.699,0-3.467,0.33-5.304,0.988c0,0.485-0.018,0.971-0.052,1.455
			c-0.035,0.521-0.053,1.023-0.053,1.509c0,1.49-0.018,2.548-0.052,3.172c-0.035,0.936-0.087,1.768-0.156,2.496v19.655
			c0,0.937,0.121,1.63,0.364,2.08c0.277,0.486,0.606,0.798,0.988,0.937c0.208,0.069,0.484,0.139,0.832,0.208l1.195,0.052
			l1.664,0.104v1.768l-3.691-0.104l-3.744-0.104l-3.692,0.104l-3.744,0.104v-1.768h0.729h0.676c0.139-0.034,0.277-0.053,0.416-0.053
			l1.248-0.155c0.416-0.034,0.866-0.295,1.353-0.78c0.416-0.485,0.624-1.282,0.624-2.393V5.616c0-0.937-0.104-1.629-0.312-2.08
			c-0.243-0.485-0.555-0.797-0.936-0.936c-0.035,0-0.122-0.034-0.261-0.104c-0.208-0.034-0.363-0.069-0.468-0.104
			c-0.347-0.069-0.624-0.104-0.832-0.104l-2.236-0.052V0.468l2.185,0.053l5.252,0.155l3.484-0.104l3.275-0.104l2.912-0.052
			c1.733,0,3.258,0.122,4.576,0.364c1.386,0.243,2.652,0.642,3.796,1.196c2.184,1.074,3.276,3.119,3.276,6.136
			c0,2.6-0.867,4.767-2.601,6.5s-4.229,2.964-7.488,3.691L840.782,30.264z"/>
	</g>
</g>
<g>
	<path fill="#FFFFFF" d="M247.195,79.144c0,0.521,0.067,0.905,0.202,1.154c0.154,0.27,0.336,0.442,0.549,0.519
		c0.115,0.04,0.269,0.077,0.461,0.114l0.664,0.032l0.924,0.057v0.981l-1.675-0.057l-1.761-0.059l-3.463,0.115V81.02h0.404h0.374
		c0.078-0.02,0.153-0.029,0.231-0.029l0.693-0.087c0.23-0.02,0.48-0.163,0.75-0.432c0.231-0.271,0.347-0.713,0.347-1.328V64.769
		c0-0.521-0.068-0.905-0.202-1.154c-0.078-0.251-0.24-0.422-0.49-0.519c-0.193-0.077-0.482-0.146-0.866-0.204l-1.241-0.029v-0.951
		l2.194,0.057l1.847,0.059l0.52-0.059l0.491-0.057l2.8,3.578l2.395,3.003l4.821,5.916l1.155,1.445l1.471,1.79l1.126,1.182V64.769
		c0-0.558-0.039-0.924-0.115-1.098c-0.076-0.211-0.241-0.395-0.491-0.548c-0.097-0.077-0.24-0.124-0.433-0.145l-0.201-0.029
		c-0.097-0.018-0.165-0.027-0.202-0.027h-0.232l-0.605-0.06h-0.519v-0.951l1.702,0.057l1.761,0.059l3.435-0.115v0.951h-0.52
		l-0.605,0.06l-0.549,0.027c-0.174,0.04-0.355,0.097-0.548,0.174c-0.193,0.079-0.347,0.26-0.462,0.548
		c-0.096,0.289-0.145,0.656-0.145,1.098v11.43l0.028,1.445l0.059,1.413l0.028,1.299l0.145,1.993
		c-0.425-0.04-0.886-0.118-1.387-0.233c-0.422-0.077-0.77-0.162-1.038-0.258c-0.27-0.192-0.491-0.386-0.665-0.577l-0.634-0.752
		l-0.521-0.663l-1.875-2.252l-10.132-12.497V79.144z"/>
	<path fill="#FFFFFF" d="M279.985,67.714c0.521-1.271,1.26-2.358,2.224-3.263c0.307-0.271,0.558-0.481,0.75-0.635
		c0.27-0.211,0.548-0.394,0.836-0.55c0.521-0.325,1.155-0.625,1.905-0.896c1.387-0.479,2.896-0.721,4.532-0.721
		c1.521,0,2.944,0.222,4.272,0.666c1.27,0.422,2.367,1.057,3.291,1.904c0.885,0.826,1.577,1.847,2.077,3.059
		c0.48,1.156,0.722,2.463,0.722,3.925c0,2.041-0.48,3.908-1.442,5.601c-0.943,1.693-2.271,3.023-3.983,3.984
		c-1.694,0.981-3.561,1.473-5.601,1.473c-1.577,0-2.991-0.233-4.242-0.693c-1.271-0.501-2.348-1.193-3.234-2.078
		c-0.922-0.924-1.635-2.011-2.135-3.262c-0.213-0.596-0.395-1.271-0.549-2.021c-0.115-0.694-0.174-1.443-0.174-2.251
		C279.234,70.417,279.485,69.004,279.985,67.714z M282.67,75.015c0.384,1.252,0.953,2.329,1.703,3.234
		c0.712,0.924,1.598,1.616,2.656,2.076c1.02,0.481,2.145,0.725,3.377,0.725c1.501,0,2.79-0.357,3.867-1.069
		c1.097-0.73,1.924-1.78,2.483-3.146c0.576-1.368,0.865-2.965,0.865-4.792c0-1.386-0.184-2.626-0.549-3.724
		c-0.385-1.155-0.923-2.138-1.616-2.945c-0.712-0.826-1.559-1.451-2.54-1.874c-0.981-0.425-2.06-0.638-3.232-0.638
		c-1.579,0-2.926,0.33-4.041,0.982c-1.155,0.674-2.031,1.606-2.627,2.801c-0.616,1.252-0.925,2.635-0.925,4.155
		C282.092,72.341,282.285,73.746,282.67,75.015z"/>
	<path fill="#FFFFFF" d="M329.085,78.451l1.01,1.414c0.211,0.271,0.501,0.52,0.867,0.749c0.326,0.175,0.797,0.309,1.414,0.405v0.981
		h-0.462h-0.347c-0.098-0.02-0.184-0.028-0.261-0.028c-0.23,0-0.537-0.028-0.923-0.087l-1.992,0.115l-4.82-6.755
		c-0.904-1.326-1.876-2.541-2.915-3.638l0.145-0.46l1.097,0.056c1.116,0,2.039-0.181,2.771-0.547
		c0.731-0.345,1.318-0.866,1.761-1.56c0.404-0.691,0.606-1.501,0.606-2.425c0-0.749-0.173-1.413-0.52-1.991
		c-0.327-0.558-0.837-1.011-1.53-1.355c-0.25-0.116-0.606-0.221-1.067-0.317c-0.097-0.02-0.192-0.04-0.289-0.06
		c-0.097,0-0.192-0.008-0.289-0.027c-0.134-0.02-0.374-0.03-0.721-0.03c-0.943,0-1.924,0.184-2.944,0.549
		c0,0.271-0.01,0.538-0.028,0.808c-0.021,0.29-0.03,0.57-0.03,0.838c0,0.828-0.009,1.413-0.027,1.761
		c-0.02,0.52-0.05,0.981-0.087,1.386v10.911c0,0.521,0.067,0.905,0.201,1.154c0.155,0.27,0.337,0.442,0.549,0.519
		c0.115,0.04,0.27,0.077,0.462,0.114l0.664,0.032l0.924,0.057v0.981l-2.05-0.057l-2.078-0.059l-2.05,0.059l-2.078,0.057V81.02h0.404
		h0.376c0.076-0.02,0.152-0.029,0.229-0.029l0.693-0.087c0.231-0.02,0.48-0.163,0.751-0.432c0.23-0.271,0.346-0.713,0.346-1.328
		V64.769c0-0.521-0.057-0.905-0.174-1.154c-0.134-0.27-0.308-0.442-0.519-0.519c-0.019,0-0.068-0.021-0.145-0.06
		c-0.115-0.018-0.202-0.037-0.26-0.058c-0.192-0.037-0.346-0.057-0.461-0.057l-1.242-0.03v-0.98l1.212,0.028l2.916,0.087
		l1.934-0.059l1.818-0.057l1.616-0.03c0.963,0,1.809,0.068,2.54,0.202c0.77,0.137,1.473,0.357,2.107,0.665
		c1.212,0.597,1.819,1.73,1.819,3.406c0,1.442-0.481,2.646-1.443,3.607c-0.963,0.963-2.348,1.645-4.156,2.048L329.085,78.451z"/>
	<path fill="#FFFFFF" d="M347.211,81.367c0.539-0.29,0.855-0.483,0.952-0.578c0.136-0.079,0.231-0.25,0.289-0.52
		c0.058-0.212,0.087-0.588,0.087-1.126V64.769c0-0.521-0.058-0.905-0.174-1.154c-0.115-0.27-0.287-0.442-0.52-0.519l-0.144-0.06
		c-0.078-0.018-0.154-0.037-0.23-0.058c-0.192-0.037-0.347-0.057-0.463-0.057l-1.27-0.03v-0.98l0.865,0.028l1.213,0.028l2.049,0.059
		l2.888-0.059l3.089-0.057c0.306,0,0.566,0.01,0.778,0.028c0.192,0.02,0.51,0.028,0.952,0.028c0.153,0,0.404,0.021,0.751,0.059
		c0.346,0.038,0.606,0.077,0.78,0.115c0.865,0.134,1.703,0.386,2.51,0.75c0.713,0.328,1.395,0.779,2.051,1.356
		c1.865,1.617,2.8,3.87,2.8,6.754c0,0.329-0.021,0.724-0.06,1.185c-0.038,0.462-0.085,0.829-0.144,1.097
		c-0.115,0.751-0.327,1.464-0.635,2.136c-0.539,1.348-1.328,2.513-2.366,3.493c-1.021,0.981-2.242,1.743-3.667,2.281
		c-1.442,0.539-3.001,0.808-4.676,0.808l-0.924-0.057l-0.866-0.031l-2.395-0.056l-1.098,0.028l-1.154,0.059l-1.271,0.057V81.367z
		 M351.743,80.559c0.635,0.077,1.097,0.124,1.385,0.144c0.521,0.058,1.012,0.087,1.473,0.087c2.886,0,5.09-0.809,6.61-2.425
		c1.521-1.579,2.28-3.829,2.28-6.756c0-1.423-0.193-2.683-0.577-3.78c-0.366-1.039-0.915-1.895-1.646-2.568
		c-0.713-0.654-1.616-1.173-2.714-1.559c-1.097-0.385-2.175-0.578-3.232-0.578c-1.154,0-2.473,0.106-3.955,0.317
		c-0.115,0.827-0.173,1.847-0.173,3.059v9.238l0.028,1.732l0.145,3.029L351.743,80.559z"/>
	<path fill="#FFFFFF" d="M386.294,62.892l-1.126,0.03l-0.548,0.027c-0.174,0.04-0.355,0.097-0.549,0.174
		c-0.212,0.097-0.355,0.28-0.433,0.548c-0.097,0.289-0.146,0.656-0.146,1.098v14.375c0,0.521,0.068,0.905,0.202,1.154
		c0.154,0.27,0.337,0.442,0.549,0.519c0.116,0.04,0.27,0.077,0.463,0.114l0.663,0.032l0.924,0.057v0.981l-2.05-0.057l-2.077-0.059
		l-2.05,0.059l-2.078,0.057V81.02h0.404h0.374c0.077-0.02,0.154-0.029,0.232-0.029l0.692-0.087c0.23-0.02,0.48-0.163,0.75-0.432
		c0.23-0.271,0.346-0.713,0.346-1.328V64.769c0-0.521-0.057-0.905-0.172-1.154c-0.136-0.27-0.309-0.442-0.52-0.519
		c-0.02,0-0.068-0.021-0.145-0.06c-0.116-0.018-0.202-0.037-0.26-0.058c-0.192-0.037-0.347-0.057-0.463-0.057l-1.24-0.03v-0.98
		l2.078,0.057l2.05,0.059l0.865-0.027l1.212-0.031l2.05-0.057V62.892z"/>
	<path fill="#FFFFFF" d="M417.61,64.509c-0.558-0.385-1.145-0.701-1.76-0.952l-0.866-0.317c-0.115-0.037-0.259-0.067-0.433-0.087
		c-0.251-0.057-0.414-0.097-0.49-0.116c-0.578-0.114-1.204-0.174-1.877-0.174c-1.29,0-2.463,0.193-3.521,0.578
		c-1.021,0.404-1.896,0.974-2.627,1.703c-0.73,0.75-1.298,1.666-1.703,2.741c-0.404,1.06-0.605,2.244-0.605,3.553
		c0,1.75,0.394,3.337,1.184,4.761c0.769,1.405,1.856,2.532,3.262,3.379c1.404,0.825,2.954,1.239,4.647,1.239
		c2.675,0,4.811-0.594,6.407-1.79l0.288,0.261l-0.201,0.491l-0.174,0.404l-0.174,0.432c-1.154,0.56-2.261,0.981-3.318,1.271
		c-0.309,0.059-0.77,0.143-1.386,0.26l-0.23,0.029c-0.058,0-0.192,0.009-0.404,0.027c-0.153,0-0.299,0.01-0.434,0.028
		c-0.172,0.021-0.471,0.031-0.895,0.031c-1.674,0-3.203-0.242-4.589-0.721c-1.386-0.483-2.617-1.186-3.695-2.107
		c-1.02-0.905-1.818-1.993-2.396-3.263c-0.577-1.31-0.865-2.686-0.865-4.128c0-1.579,0.269-3.002,0.807-4.272
		c0.559-1.309,1.339-2.406,2.339-3.292c0.981-0.864,2.241-1.566,3.781-2.107c0.693-0.211,1.482-0.392,2.368-0.546
		c0.845-0.115,1.691-0.175,2.539-0.175c0.653,0,1.365,0.06,2.137,0.175c0.923,0.134,1.751,0.288,2.481,0.46l2.193,0.463
		c-0.211,0.519-0.394,1.146-0.549,1.877c-0.134,0.674-0.201,1.47-0.201,2.396h-0.923L417.61,64.509z"/>
	<path fill="#FFFFFF" d="M470.721,81.28l-1.095,0.288l-1.183,0.258l-1.067,0.175l-1.186,0.145l-1.153,0.085l-1.04,0.031
		c-1.693,0-3.205-0.242-4.532-0.721c-1.366-0.464-2.54-1.156-3.521-2.08c-0.981-0.904-1.741-2.021-2.281-3.35
		c-0.539-1.269-0.808-2.732-0.808-4.386c0-0.962,0.145-1.914,0.433-2.858c0.288-0.942,0.702-1.81,1.24-2.599
		c0.559-0.808,1.232-1.529,2.021-2.163c1.155-0.866,2.386-1.491,3.694-1.877c1.367-0.385,2.964-0.578,4.793-0.578
		c1.229,0,2.404,0.116,3.521,0.349c0.615,0.114,1.251,0.258,1.904,0.432c0.193,0.037,0.423,0.097,0.693,0.174
		c0.211,0.057,0.413,0.106,0.605,0.144c0.039,0.018,0.127,0.05,0.26,0.087c0.251,0.077,0.473,0.144,0.664,0.201
		c-0.154,0.56-0.278,1.185-0.375,1.877l-0.23,2.279h-0.895v-0.924c0-0.73-0.029-1.183-0.087-1.355
		c-0.057-0.154-0.213-0.328-0.462-0.521c-0.809-0.46-1.732-0.826-2.772-1.094c-1.058-0.289-2.125-0.436-3.203-0.436
		c-1.405,0-2.654,0.193-3.751,0.578c-1.04,0.367-1.943,0.934-2.716,1.703c-0.75,0.73-1.335,1.646-1.76,2.741
		c-0.403,1.06-0.606,2.281-0.606,3.667c0,0.749,0.058,1.414,0.174,1.991c0.077,0.558,0.24,1.166,0.491,1.819
		c0.442,1.135,1.078,2.135,1.905,3.002c0.846,0.886,1.827,1.548,2.943,1.991c1.137,0.461,2.377,0.694,3.725,0.694
		c1.288,0,2.887-0.34,4.791-1.011v-0.926l0.087-2.278c0-0.693-0.106-1.175-0.317-1.445c-0.097-0.097-0.271-0.191-0.521-0.288
		c-0.209-0.076-0.49-0.115-0.835-0.115h-0.174l-0.952-0.028v-0.981l2.078,0.058l2.048,0.057l0.982-0.027l0.981-0.06h0.376h0.375
		l0.231-0.027v0.634l-0.578,0.232c-0.462,0.172-0.779,0.442-0.953,0.808c-0.174,0.367-0.259,1.029-0.259,1.993l0.027,0.692v0.634
		c0,0.271,0.04,0.568,0.116,0.896l0.115,0.78C472.3,80.797,471.646,81.01,470.721,81.28z"/>
	<path fill="#FFFFFF" d="M502.937,78.451l1.009,1.414c0.213,0.271,0.499,0.52,0.866,0.749c0.328,0.175,0.797,0.309,1.415,0.405
		v0.981h-0.464h-0.345c-0.096-0.02-0.185-0.028-0.262-0.028c-0.229,0-0.538-0.028-0.921-0.087l-1.994,0.115l-4.818-6.755
		c-0.905-1.326-1.876-2.541-2.916-3.638l0.144-0.46l1.098,0.056c1.116,0,2.039-0.181,2.771-0.547
		c0.729-0.345,1.317-0.866,1.762-1.56c0.402-0.691,0.606-1.501,0.606-2.425c0-0.749-0.174-1.413-0.521-1.991
		c-0.325-0.558-0.836-1.011-1.53-1.355c-0.248-0.116-0.604-0.221-1.066-0.317c-0.097-0.02-0.193-0.04-0.288-0.06
		c-0.097,0-0.193-0.008-0.29-0.027c-0.135-0.02-0.375-0.03-0.721-0.03c-0.943,0-1.924,0.184-2.944,0.549
		c0,0.271-0.01,0.538-0.027,0.808c-0.021,0.29-0.03,0.57-0.03,0.838c0,0.828-0.01,1.413-0.028,1.761
		c-0.021,0.52-0.049,0.981-0.088,1.386v10.911c0,0.521,0.067,0.905,0.203,1.154c0.152,0.27,0.335,0.442,0.547,0.519
		c0.116,0.04,0.271,0.077,0.464,0.114l0.662,0.032l0.925,0.057v0.981l-2.051-0.057l-2.076-0.059l-2.051,0.059l-2.078,0.057V81.02
		h0.405h0.375c0.077-0.02,0.151-0.029,0.23-0.029l0.693-0.087c0.23-0.02,0.479-0.163,0.75-0.432
		c0.231-0.271,0.347-0.713,0.347-1.328V64.769c0-0.521-0.059-0.905-0.174-1.154c-0.134-0.27-0.308-0.442-0.521-0.519
		c-0.018,0-0.067-0.021-0.144-0.06c-0.115-0.018-0.202-0.037-0.259-0.058c-0.193-0.037-0.348-0.057-0.464-0.057l-1.24-0.03v-0.98
		l1.213,0.028l2.916,0.087l1.933-0.059l1.818-0.057l1.616-0.03c0.962,0,1.809,0.068,2.54,0.202c0.77,0.137,1.473,0.357,2.107,0.665
		c1.213,0.597,1.82,1.73,1.82,3.406c0,1.442-0.483,2.646-1.445,3.607c-0.963,0.963-2.348,1.645-4.155,2.048L502.937,78.451z"/>
	<path fill="#FFFFFF" d="M519.3,67.714c0.521-1.271,1.261-2.358,2.224-3.263c0.306-0.271,0.56-0.481,0.75-0.635
		c0.271-0.211,0.549-0.394,0.838-0.55c0.519-0.325,1.153-0.625,1.903-0.896c1.388-0.479,2.896-0.721,4.534-0.721
		c1.521,0,2.943,0.222,4.27,0.666c1.271,0.422,2.367,1.057,3.294,1.904c0.882,0.826,1.577,1.847,2.076,3.059
		c0.48,1.156,0.721,2.463,0.721,3.925c0,2.041-0.48,3.908-1.442,5.601c-0.941,1.693-2.271,3.023-3.983,3.984
		c-1.693,0.981-3.561,1.473-5.599,1.473c-1.578,0-2.993-0.233-4.242-0.693c-1.271-0.501-2.35-1.193-3.235-2.078
		c-0.924-0.924-1.636-2.011-2.135-3.262c-0.212-0.596-0.395-1.271-0.549-2.021c-0.116-0.694-0.174-1.443-0.174-2.251
		C518.55,70.417,518.801,69.004,519.3,67.714z M521.986,75.015c0.384,1.252,0.952,2.329,1.702,3.234
		c0.711,0.924,1.597,1.616,2.656,2.076c1.021,0.481,2.146,0.725,3.376,0.725c1.5,0,2.791-0.357,3.869-1.069
		c1.095-0.73,1.923-1.78,2.482-3.146c0.576-1.368,0.866-2.965,0.866-4.792c0-1.386-0.185-2.626-0.549-3.724
		c-0.387-1.155-0.924-2.138-1.616-2.945c-0.712-0.826-1.559-1.451-2.541-1.874c-0.981-0.425-2.06-0.638-3.232-0.638
		c-1.58,0-2.926,0.33-4.043,0.982c-1.153,0.674-2.03,1.606-2.626,2.801c-0.615,1.252-0.924,2.635-0.924,4.155
		C521.407,72.341,521.601,73.746,521.986,75.015z"/>
	<path fill="#FFFFFF" d="M566.494,61.911l1.705,0.057l1.76,0.059l3.437-0.115v0.98l-1.126,0.03l-0.551,0.027
		c-0.133,0.02-0.307,0.079-0.519,0.174c-0.229,0.097-0.387,0.26-0.464,0.491c-0.097,0.249-0.144,0.634-0.144,1.154v8.139
		l-0.027,1.82l-0.03,1.066v0.404c0,0.06-0.009,0.146-0.027,0.261c0,0.134-0.012,0.23-0.028,0.289
		c-0.019,0.192-0.077,0.481-0.173,0.865c-0.08,0.425-0.232,0.848-0.464,1.27c-0.074,0.134-0.193,0.308-0.345,0.521
		c-0.193,0.231-0.348,0.412-0.464,0.549c-0.691,0.768-1.577,1.346-2.655,1.731c-1.114,0.385-2.367,0.578-3.754,0.578
		c-1.846,0-3.423-0.289-4.733-0.867c-1.326-0.598-2.203-1.386-2.626-2.368l-0.201-0.519l-0.174-0.52l-0.088-0.605l-0.056-0.722
		v-1.242c0-0.213-0.008-0.404-0.027-0.576v-0.549v-2.251v-7.274c0-0.521-0.068-0.905-0.204-1.154
		c-0.115-0.27-0.301-0.442-0.549-0.519l-0.402-0.117l-0.375-0.057l-1.271-0.03v-0.98l0.866,0.028l1.21,0.028l2.053,0.059
		l0.863-0.027l1.216-0.031l2.047-0.057v0.98l-0.604,0.03c-0.634,0-1.089,0.027-1.359,0.087c-0.229,0.057-0.441,0.221-0.635,0.491
		c-0.132,0.248-0.201,0.671-0.201,1.269v8.688l0.027,1.241l0.031,1.387l0.03,0.779c0.017,0.096,0.077,0.279,0.173,0.547l0.028,0.146
		c0.115,0.404,0.278,0.739,0.491,1.01c0.44,0.616,1.098,1.078,1.961,1.386c0.904,0.346,1.925,0.52,3.062,0.52
		c1.133,0,2.173-0.174,3.116-0.52c0.924-0.308,1.605-0.77,2.05-1.386c0.328-0.481,0.567-1.144,0.722-1.992
		c0.152-0.885,0.229-2.116,0.229-3.695v-8.11c0-0.461-0.05-0.837-0.144-1.126c-0.116-0.27-0.259-0.44-0.433-0.52l-0.461-0.145
		c-0.154-0.037-0.298-0.057-0.436-0.057l-1.327-0.03V61.911z"/>
	<path fill="#FFFFFF" d="M592.732,65.837l-0.027,1.961v11.346c0,0.521,0.066,0.905,0.201,1.154c0.154,0.27,0.337,0.442,0.549,0.519
		c0.116,0.04,0.271,0.077,0.463,0.114l0.662,0.032l0.924,0.057v0.981l-2.049-0.057l-2.08-0.059l-2.049,0.059l-2.077,0.057V81.02
		h0.403h0.375c0.08-0.02,0.154-0.029,0.231-0.029l0.692-0.087c0.231-0.02,0.482-0.163,0.753-0.432
		c0.229-0.271,0.345-0.713,0.345-1.328V64.769c0-0.521-0.058-0.905-0.174-1.154c-0.135-0.27-0.309-0.442-0.519-0.519
		c-0.02,0-0.069-0.021-0.144-0.06c-0.115-0.018-0.204-0.037-0.262-0.058c-0.193-0.037-0.345-0.057-0.461-0.057l-1.241-0.03v-0.98
		l1.211,0.028l2.915,0.087h0.665h0.29h0.229c0.077-0.019,0.166-0.027,0.262-0.027l1.934-0.088l2.425-0.058
		c2.077,0,3.677,0.394,4.791,1.183c1.098,0.771,1.644,1.934,1.644,3.493c0,0.964-0.307,1.916-0.921,2.857
		c-0.577,0.926-1.396,1.684-2.455,2.279c-0.998,0.58-2.077,0.868-3.229,0.868c-0.812,0-1.611-0.087-2.397-0.261l-0.262-1.069
		c0.847,0.214,1.465,0.32,1.848,0.32c0.731,0,1.357-0.097,1.876-0.29c0.579-0.211,1.04-0.49,1.388-0.838
		c0.383-0.384,0.673-0.855,0.865-1.414c0.213-0.597,0.317-1.241,0.317-1.934c0-1.309-0.433-2.319-1.299-3.03
		c-0.827-0.712-2.052-1.069-3.668-1.069h-0.431c-0.154,0-0.262,0.01-0.317,0.029c-0.097,0-0.281,0.03-0.549,0.087
		c-0.328,0.04-0.857,0.174-1.589,0.404L592.732,65.837z"/>
</g>
</svg>
