<?xml version="1.0" encoding="utf-8"?>
<!-- Generator: Adobe Illustrator 16.0.0, SVG Export Plug-In . SVG Version: 6.00 Build 0)  -->
<!DOCTYPE svg PUBLIC "-//W3C//DTD SVG 1.1//EN" "http://www.w3.org/Graphics/SVG/1.1/DTD/svg11.dtd">
<svg version="1.1" id="Layer_1" xmlns="http://www.w3.org/2000/svg" xmlns:xlink="http://www.w3.org/1999/xlink" x="0px" y="0px"
	 width="846.71px" height="37.284px" viewBox="0 0 846.71 37.284" enable-background="new 0 0 846.71 37.284" xml:space="preserve">
<g>
	<g>
		<path fill="#FFFFFF" d="M32.188,35.36l-1.977,0.52l-2.132,0.469l-1.925,0.312l-2.131,0.26l-2.08,0.156l-1.873,0.052
			c-3.051,0-5.771-0.434-8.163-1.3c-2.462-0.832-4.576-2.08-6.345-3.744c-1.768-1.629-3.137-3.64-4.107-6.032
			C0.485,23.764,0,21.13,0,18.148C0,16.415,0.26,14.699,0.78,13c0.52-1.698,1.265-3.258,2.236-4.68
			c1.004-1.456,2.217-2.756,3.639-3.9c2.08-1.56,4.299-2.686,6.656-3.38C15.772,0.347,18.649,0,21.944,0
			c2.218,0,4.332,0.208,6.344,0.624c1.109,0.208,2.253,0.468,3.432,0.78c0.346,0.069,0.762,0.174,1.248,0.312
			c0.381,0.104,0.745,0.191,1.092,0.261c0.069,0.034,0.226,0.087,0.469,0.155c0.449,0.14,0.849,0.261,1.195,0.364
			c-0.277,1.006-0.502,2.132-0.676,3.38l-0.416,4.108h-1.611V8.32c0-1.317-0.053-2.132-0.156-2.444
			c-0.104-0.277-0.383-0.589-0.832-0.936c-1.456-0.832-3.12-1.49-4.992-1.977c-1.907-0.52-3.831-0.779-5.771-0.779
			c-2.531,0-4.785,0.347-6.761,1.04c-1.872,0.658-3.502,1.682-4.888,3.067c-1.352,1.318-2.41,2.964-3.172,4.94
			c-0.729,1.906-1.092,4.107-1.092,6.604c0,1.353,0.104,2.548,0.312,3.588c0.138,1.006,0.433,2.099,0.884,3.276
			c0.797,2.046,1.941,3.848,3.432,5.408c1.525,1.595,3.293,2.791,5.305,3.588c2.045,0.832,4.281,1.248,6.708,1.248
			c2.321,0,5.2-0.606,8.632-1.82V31.46l0.156-4.107c0-1.248-0.191-2.114-0.572-2.601c-0.174-0.173-0.486-0.346-0.936-0.52
			c-0.383-0.139-0.885-0.208-1.508-0.208h-0.312l-1.717-0.053v-1.768l3.744,0.104l3.692,0.104l1.769-0.052l1.768-0.104h0.676h0.676
			l0.416-0.052v1.145l-1.039,0.415c-0.832,0.312-1.404,0.799-1.717,1.456c-0.312,0.659-0.468,1.855-0.468,3.589l0.052,1.247V31.2
			c0,0.485,0.069,1.022,0.209,1.612l0.207,1.403C35.03,34.494,33.853,34.875,32.188,35.36z"/>
		<path fill="#FFFFFF" d="M50.075,10.92c0.936-2.288,2.271-4.246,4.004-5.876c0.555-0.484,1.006-0.866,1.352-1.144
			c0.486-0.381,0.988-0.71,1.509-0.988c0.937-0.589,2.08-1.126,3.433-1.612C62.867,0.434,65.589,0,68.535,0
			c2.738,0,5.304,0.399,7.696,1.196c2.288,0.763,4.264,1.907,5.928,3.432c1.594,1.491,2.842,3.328,3.744,5.513
			c0.866,2.079,1.3,4.438,1.3,7.071c0,3.675-0.866,7.038-2.6,10.088c-1.699,3.052-4.091,5.443-7.177,7.177
			c-3.051,1.768-6.413,2.651-10.088,2.651c-2.842,0-5.391-0.416-7.644-1.248c-2.288-0.9-4.229-2.148-5.823-3.744
			c-1.664-1.664-2.947-3.622-3.849-5.876c-0.382-1.074-0.711-2.288-0.988-3.64c-0.208-1.248-0.312-2.6-0.312-4.056
			C48.724,15.791,49.173,13.243,50.075,10.92z M54.911,24.076c0.693,2.254,1.717,4.195,3.068,5.824
			c1.281,1.664,2.877,2.912,4.783,3.744c1.838,0.866,3.865,1.3,6.084,1.3c2.705,0,5.027-0.642,6.969-1.924
			c1.977-1.317,3.466-3.206,4.472-5.668c1.04-2.462,1.56-5.339,1.56-8.633c0-2.495-0.329-4.731-0.987-6.708
			c-0.694-2.079-1.664-3.848-2.912-5.304c-1.282-1.49-2.808-2.617-4.575-3.38c-1.769-0.762-3.711-1.144-5.824-1.144
			c-2.844,0-5.271,0.59-7.28,1.768c-2.08,1.214-3.658,2.895-4.732,5.044c-1.11,2.254-1.663,4.75-1.663,7.488
			C53.872,19.258,54.218,21.788,54.911,24.076z"/>
		<path fill="#FFFFFF" d="M110.396,34.216l2.184,0.053l2.859-0.053l2.393-0.052h0.729h0.571c0.173-0.034,0.347-0.052,0.521-0.052
			l1.664-0.208c0.936-0.104,1.94-0.312,3.016-0.624l1.561-5.98h1.664c-0.14,0.902-0.451,3.606-0.937,8.112l-0.104,0.832
			l-1.508,0.208l-1.092,0.104l-1.611,0.053h-0.729c-0.312,0-0.555,0.017-0.729,0.052l-2.496-0.104l-3.535-0.052l-8.008-0.104
			l-1.769,0.052l-2.132,0.104l-1.924,0.104v-1.144c0.762-0.416,1.316-0.763,1.664-1.04c0.207-0.174,0.397-0.503,0.572-0.988
			c0.104-0.416,0.155-1.074,0.155-1.977V5.616c0-0.937-0.122-1.629-0.364-2.08c-0.207-0.45-0.502-0.762-0.884-0.936
			c-0.347-0.139-0.866-0.261-1.56-0.364l-2.236-0.052V0.468l3.744,0.104l3.691,0.104l3.744-0.104l3.692-0.104v1.717h-0.937
			l-1.092,0.104l-0.988,0.052c-0.312,0.07-0.642,0.174-0.987,0.312c-0.382,0.174-0.642,0.503-0.78,0.988
			c-0.174,0.52-0.26,1.179-0.26,1.976V25.48v2.235v2.652l0.052,2.444v0.52v0.416l-0.052,0.364L110.396,34.216z"/>
		<path fill="#FFFFFF" d="M148.042,31.512c0,0.937,0.121,1.63,0.365,2.08c0.276,0.486,0.605,0.798,0.987,0.937
			c0.208,0.069,0.485,0.139,0.832,0.208l1.196,0.052l1.664,0.104v1.768l-3.692-0.104l-3.744-0.104l-3.692,0.104l-3.744,0.104v-1.768
			h0.729h0.676c0.139-0.034,0.277-0.053,0.416-0.053l1.248-0.155c0.416-0.034,0.867-0.295,1.353-0.78
			c0.416-0.485,0.624-1.282,0.624-2.393V5.616c0-0.937-0.104-1.629-0.312-2.08c-0.242-0.485-0.555-0.797-0.936-0.936l-0.26-0.104
			c-0.139-0.034-0.278-0.069-0.416-0.104c-0.348-0.069-0.643-0.104-0.885-0.104l-2.236-0.052V0.468l3.9,0.104l3.172,0.104
			l5.877-0.052l5.304-0.052l3.743-0.104c1.595,0,3.467,0.087,5.617,0.261c-0.035,0.139-0.104,0.416-0.209,0.832
			c-0.069,0.242-0.139,0.468-0.207,0.676c-0.104,0.451-0.209,1.075-0.312,1.872l-0.208,2.027l-0.104,2.393h-1.715
			c0-1.803-0.088-3.362-0.261-4.68c-1.214-0.416-2.375-0.693-3.483-0.832l-2.133-0.156l-2.6-0.104c-2.08,0-4.16,0.104-6.24,0.312
			c-0.208,2.011-0.312,3.986-0.312,5.928V16.9h0.885c0.381,0,0.693,0.018,0.936,0.052l2.652,0.156h2.08
			c0.346,0,0.658-0.018,0.936-0.053h0.937l1.196-0.104c0.346-0.034,0.728-0.138,1.144-0.312c0.45-0.174,0.745-0.434,0.884-0.78
			l0.208-0.676l0.104-0.937l0.052-1.092l0.052-0.884h1.717l-0.156,5.876l0.156,5.928h-1.717l-0.052-0.884l-0.052-1.092
			c0-0.832-0.191-1.474-0.572-1.925c-0.312-0.381-0.954-0.641-1.924-0.779l-1.977-0.104l-3.016-0.052
			c-2.012,0-3.502,0.069-4.473,0.208V31.512z"/>
		<path fill="#FFFFFF" d="M219.698,15.704l3.952,0.156l5.563-0.104l5.564-0.104l-0.312,1.664l-0.26,1.924l-1.716-0.26l-1.508-0.104
			l-4.056-0.208l0.207,1.196l0.053,1.04c0,1.525-0.33,2.981-0.988,4.368c-0.624,1.317-1.734,2.825-3.328,4.523
			c3.293,2.358,6.361,3.536,9.204,3.536c0.45,0,0.814-0.069,1.093-0.208c0.416-0.138,1.021-0.468,1.819-0.988l0.364,1.196
			c-1.526,1.04-3.016,2.185-4.473,3.432c-0.623,0.242-1.317,0.364-2.08,0.364c-1.352,0-2.721-0.33-4.107-0.987
			c-1.561-0.729-3.225-1.803-4.992-3.225c-1.074,0.832-2.201,1.612-3.38,2.34c-0.694,0.348-1.231,0.59-1.612,0.729l-1.768,0.624
			c-1.145,0.346-2.444,0.52-3.9,0.52c-1.422,0-2.808-0.243-4.16-0.728c-0.416-0.173-1.006-0.502-1.768-0.988
			c-0.764-0.485-1.3-0.884-1.611-1.196c-0.972-1.005-1.699-2.132-2.185-3.38c-0.521-1.316-0.78-2.721-0.78-4.212
			c0-1.629,0.346-3.102,1.04-4.42c0.728-1.317,1.698-2.496,2.912-3.536c0.381-0.346,0.987-0.832,1.819-1.456
			c0.242-0.173,0.711-0.502,1.404-0.987c0.242-0.174,0.502-0.347,0.78-0.521l-0.728-2.028l-0.469-1.664
			c0-0.034-0.018-0.173-0.052-0.416c-0.069-0.416-0.122-0.728-0.155-0.936c-0.035-0.312-0.053-0.814-0.053-1.508
			c0-1.421,0.156-2.514,0.469-3.276c0.312-0.797,0.9-1.577,1.768-2.34c1.213-1.109,2.305-2.01,3.275-2.704
			c0.416-0.277,0.901-0.485,1.457-0.624C212.452,0.07,213.024,0,213.718,0c0.902,0,1.699,0.191,2.393,0.572
			c0.729,0.382,1.266,0.919,1.611,1.612c0.382,0.832,0.572,1.682,0.572,2.548c0,1.282-0.26,2.479-0.779,3.588
			c-0.243,0.555-0.572,1.109-0.988,1.664c-0.451,0.624-0.936,1.195-1.456,1.716c-0.901,1.006-2.306,2.184-4.212,3.536
			c0.936,1.768,1.941,3.415,3.016,4.939c1.248,1.734,2.444,3.225,3.588,4.473c1.109,1.248,2.41,2.565,3.9,3.952
			c0.866-1.04,1.508-2.08,1.924-3.12c0.416-1.006,0.624-2.132,0.624-3.38c0-1.145-0.104-1.941-0.312-2.393
			c-0.209-0.485-0.625-0.832-1.248-1.04l-1.196-0.208l-1.819-0.052h-1.093l-0.155-0.416L219.698,15.704z M212.263,25.116
			c-1.699-2.253-3.328-4.767-4.889-7.54c-1.595,1.144-2.703,2.254-3.328,3.328c-0.728,1.144-1.092,2.444-1.092,3.899
			c0,1.699,0.381,3.242,1.145,4.629c0.728,1.352,1.785,2.479,3.172,3.38c1.386,0.866,2.895,1.3,4.523,1.3
			c1.906,0,4.021-0.85,6.344-2.548C215.954,29.554,213.995,27.404,212.263,25.116z M213.511,9.725
			c0.762-1.179,1.144-2.427,1.144-3.744c0-0.937-0.26-1.733-0.78-2.393c-0.52-0.658-1.127-0.987-1.82-0.987
			c-1.074,0-1.906,0.398-2.496,1.195c-0.59,0.798-0.883,1.959-0.883,3.484v0.78c0,0.312,0.017,0.537,0.052,0.676l0.26,1.248
			c0.208,1.109,0.537,2.271,0.987,3.483C211.568,12.151,212.747,10.903,213.511,9.725z"/>
		<path fill="#FFFFFF" d="M287.559,16.225c0.521,0.069,1.108,0.174,1.769,0.312c0.449,0.104,1.178,0.347,2.184,0.728
			c0.033,0.035,0.104,0.07,0.208,0.104c1.524,0.659,2.669,1.595,3.432,2.808c0.728,1.18,1.093,2.636,1.093,4.368
			c0,2.323-0.607,4.403-1.82,6.24c-1.283,1.872-3.034,3.294-5.252,4.264c-2.219,1.04-4.768,1.561-7.645,1.561l-1.977-0.053
			l-2.443-0.104h-1.977l-4.783,0.208v-1.144c0.832-0.45,1.404-0.798,1.716-1.04c0.208-0.174,0.397-0.469,0.572-0.885
			c0.069-0.554,0.104-1.248,0.104-2.08V5.616c0-0.937-0.104-1.629-0.312-2.08c-0.243-0.485-0.555-0.797-0.936-0.936
			c-0.035,0-0.123-0.034-0.261-0.104c-0.208-0.034-0.364-0.069-0.468-0.104c-0.348-0.069-0.624-0.104-0.832-0.104l-2.236-0.052
			V0.468l2.184,0.053l5.252,0.155l3.173-0.052l3.276-0.104h1.56l1.612-0.053c2.564,0,4.818,0.503,6.76,1.509
			s2.912,2.703,2.912,5.096c0,1.525-0.278,2.826-0.832,3.899c-0.555,1.11-1.475,2.099-2.756,2.965
			c-1.215,0.798-2.844,1.543-4.889,2.235C286.675,16.172,287.212,16.19,287.559,16.225z M279.759,15.548
			c3.293,0,5.701-0.554,7.228-1.664c1.525-1.108,2.288-2.912,2.288-5.407c0-3.952-2.548-5.929-7.645-5.929l-1.871,0.104
			c-0.139,0-0.399,0.035-0.78,0.104h-0.155c-0.175,0.035-0.348,0.053-0.521,0.053c-0.175,0.034-0.347,0.069-0.521,0.104l-0.156,2.34
			l-0.104,2.704l-0.052,4.316v3.172L279.759,15.548z M281.475,34.424c1.976,0,3.657-0.363,5.044-1.092
			c1.421-0.693,2.514-1.733,3.275-3.12c0.729-1.352,1.093-2.98,1.093-4.888c0-3.05-0.954-5.113-2.86-6.188
			c-1.906-1.073-4.455-1.611-7.645-1.611c-0.901,0-1.871,0.035-2.911,0.104v8.996l0.052,3.017l0.053,3.016v0.624l-0.104,0.78
			C278.96,34.303,280.296,34.424,281.475,34.424z"/>
		<path fill="#FFFFFF" d="M333.734,0.468l3.068,0.104l3.172,0.104l6.188-0.208v1.769l-2.027,0.052l-0.988,0.052
			c-0.243,0.035-0.555,0.14-0.936,0.312c-0.416,0.174-0.694,0.468-0.832,0.884c-0.174,0.451-0.261,1.144-0.261,2.08V20.28
			l-0.052,3.275l-0.052,1.925v0.728c0,0.104-0.018,0.26-0.052,0.468c0,0.243-0.019,0.416-0.053,0.521
			c-0.034,0.347-0.139,0.867-0.312,1.56c-0.139,0.764-0.416,1.526-0.832,2.288c-0.139,0.243-0.347,0.555-0.624,0.937
			c-0.347,0.416-0.624,0.745-0.832,0.987c-1.248,1.388-2.843,2.428-4.784,3.12c-2.011,0.693-4.264,1.04-6.76,1.04
			c-3.328,0-6.171-0.52-8.528-1.56c-2.392-1.074-3.97-2.496-4.731-4.265l-0.364-0.936l-0.312-0.936l-0.156-1.093l-0.104-1.3v-2.236
			c0-0.381-0.018-0.728-0.052-1.04v-0.987V18.72V5.616c0-0.937-0.122-1.629-0.364-2.08c-0.208-0.485-0.537-0.797-0.987-0.936
			l-0.729-0.208l-0.676-0.104l-2.288-0.052V0.468l1.56,0.053l2.185,0.052l3.691,0.104l1.561-0.052l2.184-0.052l3.692-0.104v1.769
			l-1.092,0.052c-1.145,0-1.959,0.052-2.444,0.156c-0.416,0.104-0.798,0.398-1.144,0.884c-0.243,0.451-0.364,1.214-0.364,2.288
			v15.652l0.052,2.235L317.406,26l0.053,1.404c0.034,0.174,0.138,0.503,0.312,0.988l0.052,0.26c0.208,0.728,0.502,1.335,0.885,1.819
			c0.797,1.11,1.976,1.942,3.535,2.496c1.63,0.624,3.467,0.937,5.513,0.937c2.045,0,3.917-0.312,5.615-0.937
			c1.664-0.554,2.895-1.386,3.692-2.496c0.589-0.865,1.022-2.062,1.3-3.588c0.277-1.594,0.416-3.812,0.416-6.655V5.616
			c0-0.832-0.087-1.508-0.26-2.028c-0.208-0.484-0.468-0.797-0.78-0.936l-0.832-0.26c-0.277-0.069-0.537-0.104-0.779-0.104
			l-2.393-0.052V0.468z"/>
		<path fill="#FFFFFF" d="M379.391,5.2l-0.104,1.56l-0.104,2.444h-1.769V7.176c0-3.327-2.565-4.991-7.696-4.991
			c-1.906,0-3.483,0.277-4.731,0.832c-1.283,0.555-2.323,1.387-3.12,2.495c-0.798,1.11-1.196,2.358-1.196,3.744
			c0,2.219,0.606,3.796,1.82,4.732c1.178,0.971,2.86,1.612,5.044,1.924l6.448,0.729c2.184,0.208,3.865,0.693,5.044,1.455
			c0.901,0.556,1.646,1.422,2.236,2.601c0.589,1.214,0.884,2.427,0.884,3.64c0,1.872-0.364,3.588-1.092,5.148
			c-0.729,1.49-1.804,2.843-3.225,4.056c-1.422,1.179-3.086,2.08-4.992,2.704c-1.976,0.589-4.056,0.884-6.239,0.884
			c-1.561,0-2.704-0.069-3.433-0.208h-0.676l-0.312-0.052c-0.277-0.07-0.485-0.122-0.623-0.156l-1.561-0.363
			c-0.312-0.104-0.728-0.242-1.248-0.416l-0.364-0.104c-0.277-0.069-0.642-0.208-1.092-0.416l-0.676-0.26
			c0.034-0.45,0.086-0.918,0.156-1.404c0-0.242,0.017-0.45,0.052-0.624v-0.156c0.069-0.589,0.104-0.987,0.104-1.195l0.104-4.42
			h1.768v1.3c0,1.352,0.053,2.235,0.156,2.651c0.104,0.451,0.381,0.885,0.832,1.301c0.937,0.728,2.062,1.3,3.38,1.716
			c1.353,0.416,2.843,0.624,4.473,0.624c1.108,0,2.062-0.069,2.859-0.208c0.832-0.139,1.646-0.381,2.444-0.729
			c1.56-0.692,2.738-1.664,3.536-2.912c0.832-1.213,1.248-2.616,1.248-4.212c0-2.634-0.851-4.315-2.549-5.044
			c-1.663-0.658-4.299-1.178-7.903-1.56c-3.71-0.381-6.448-1.145-8.216-2.288c-1.872-1.213-2.809-3.501-2.809-6.864
			c0-1.732,0.312-3.293,0.937-4.68c0.624-1.317,1.56-2.479,2.808-3.484c1.213-0.936,2.669-1.664,4.368-2.184
			c0.624-0.208,1.525-0.398,2.704-0.572C367.933,0.07,368.973,0,370.187,0c3.154,0,6.413,0.729,9.775,2.185
			C379.615,3.328,379.425,4.334,379.391,5.2z"/>
		<path fill="#FFFFFF" d="M407.626,2.236l-2.028,0.052l-0.988,0.052c-0.312,0.07-0.642,0.174-0.987,0.312
			c-0.383,0.174-0.643,0.503-0.78,0.988c-0.174,0.52-0.26,1.179-0.26,1.976v25.896c0,0.937,0.121,1.63,0.363,2.08
			c0.277,0.486,0.606,0.798,0.988,0.937c0.208,0.069,0.485,0.139,0.832,0.208l1.196,0.052l1.664,0.104v1.768l-3.692-0.104
			l-3.744-0.104l-3.691,0.104l-3.744,0.104v-1.768h0.728h0.676c0.139-0.034,0.277-0.053,0.416-0.053l1.248-0.155
			c0.416-0.034,0.866-0.295,1.353-0.78c0.416-0.485,0.624-1.282,0.624-2.393V5.616c0-0.937-0.104-1.629-0.312-2.08
			c-0.243-0.485-0.555-0.797-0.936-0.936c-0.035,0-0.122-0.034-0.26-0.104c-0.208-0.034-0.364-0.069-0.469-0.104
			c-0.347-0.069-0.624-0.104-0.832-0.104l-2.235-0.052V0.468l3.744,0.104l3.691,0.104l1.561-0.052l2.184-0.052l3.692-0.104V2.236z"
			/>
		<path fill="#FFFFFF" d="M425.722,31.512c0,0.937,0.121,1.63,0.364,2.08c0.276,0.486,0.605,0.798,0.987,0.937
			c0.208,0.069,0.485,0.139,0.832,0.208l1.196,0.052l1.664,0.104v1.768l-3.016-0.104l-3.173-0.104l-6.239,0.208v-1.768h0.728h0.676
			c0.139-0.034,0.277-0.053,0.416-0.053l1.248-0.155c0.416-0.034,0.866-0.295,1.353-0.78c0.416-0.485,0.624-1.282,0.624-2.393V5.616
			c0-0.937-0.122-1.629-0.364-2.08c-0.139-0.45-0.434-0.762-0.884-0.936c-0.347-0.139-0.867-0.261-1.561-0.364l-2.235-0.052V0.468
			l3.952,0.104l3.327,0.104l0.937-0.104l0.884-0.104l5.044,6.448l4.316,5.408l8.684,10.66l2.08,2.6l2.652,3.225l2.027,2.132V5.616
			c0-1.005-0.069-1.664-0.208-1.976c-0.139-0.382-0.434-0.711-0.884-0.988c-0.174-0.139-0.434-0.226-0.78-0.26l-0.363-0.053
			c-0.174-0.034-0.295-0.052-0.364-0.052h-0.416l-1.092-0.104h-0.937V0.468l3.068,0.104l3.172,0.104l6.188-0.208v1.717h-0.937
			l-1.092,0.104l-0.988,0.052c-0.312,0.07-0.642,0.174-0.987,0.312c-0.348,0.139-0.624,0.468-0.832,0.988
			c-0.174,0.52-0.261,1.179-0.261,1.976v20.592l0.053,2.601l0.104,2.548l0.052,2.34l0.261,3.588
			c-0.764-0.07-1.596-0.208-2.496-0.416c-0.764-0.139-1.388-0.295-1.872-0.468c-0.486-0.347-0.884-0.693-1.196-1.04l-1.144-1.353
			l-0.937-1.195l-3.38-4.057L425.722,6.24V31.512z"/>
		<path fill="#FFFFFF" d="M480.581,25.636v3.536c0,2.427,0.018,3.692,0.052,3.796v0.572l0.053,0.572
			c0.208,0,0.605,0.018,1.195,0.052c0.521,0.035,0.814,0.052,0.884,0.052c0.658,0.035,1.335,0.053,2.028,0.053l3.692,0.104
			c2.01,0,3.483-0.052,4.42-0.156c1.005-0.104,2.045-0.363,3.12-0.779l0.832-3.12l0.468-2.444h1.716
			c-0.451,3.259-0.676,6.102-0.676,8.528c-1.977,0.208-3.831,0.312-5.564,0.312l-3.483-0.052l-4.836-0.104l-6.5-0.104l-5.252,0.156
			l-2.185,0.052v-1.768h0.676h0.729c0.138-0.034,0.277-0.053,0.416-0.053l1.248-0.155c0.416-0.034,0.866-0.295,1.352-0.78
			c0.416-0.485,0.624-1.282,0.624-2.393V5.616c0-0.937-0.122-1.629-0.363-2.08c-0.208-0.45-0.503-0.762-0.885-0.936
			c-0.347-0.139-0.866-0.261-1.56-0.364l-2.236-0.052V0.468l3.9,0.104l3.38,0.104l7.488-0.104l7.436-0.104l1.82,0.104l3.796,0.156
			c-0.07,0.242-0.139,0.52-0.208,0.832c-0.104,0.312-0.191,0.59-0.26,0.832c-0.14,0.555-0.243,1.144-0.312,1.768l-0.208,2.028
			l-0.052,2.34h-1.716c0-1.733-0.087-3.293-0.261-4.68c-1.109-0.416-2.235-0.693-3.38-0.832l-2.132-0.156l-2.704-0.104
			c-2.53,0-4.68,0.104-6.447,0.312l-0.053,4.315l-0.052,4.368V16.9h0.832c0.381,0,0.693,0.018,0.936,0.052l2.704,0.156h2.133
			c0.312,0,0.605-0.018,0.884-0.053h0.936l1.196-0.104c0.346-0.034,0.728-0.138,1.144-0.312c0.45-0.174,0.745-0.434,0.885-0.78
			l0.208-0.676l0.104-0.937l0.104-1.092v-0.884h1.716l-0.156,5.876l0.156,5.928h-1.716v-0.884l-0.104-1.092
			c0-0.832-0.19-1.474-0.572-1.925c-0.242-0.346-0.884-0.605-1.924-0.779l-1.976-0.104l-3.017-0.052
			c-2.046,0-3.535,0.069-4.472,0.208V25.636z"/>
		<path fill="#FFFFFF" d="M533.101,5.2l-0.104,1.56l-0.104,2.444h-1.769V7.176c0-3.327-2.565-4.991-7.696-4.991
			c-1.906,0-3.483,0.277-4.731,0.832c-1.283,0.555-2.323,1.387-3.12,2.495c-0.798,1.11-1.196,2.358-1.196,3.744
			c0,2.219,0.606,3.796,1.82,4.732c1.178,0.971,2.86,1.612,5.044,1.924l6.448,0.729c2.184,0.208,3.865,0.693,5.044,1.455
			c0.901,0.556,1.646,1.422,2.236,2.601c0.589,1.214,0.884,2.427,0.884,3.64c0,1.872-0.364,3.588-1.092,5.148
			c-0.729,1.49-1.804,2.843-3.225,4.056c-1.422,1.179-3.086,2.08-4.992,2.704c-1.976,0.589-4.056,0.884-6.239,0.884
			c-1.561,0-2.704-0.069-3.433-0.208H516.2l-0.312-0.052c-0.277-0.07-0.485-0.122-0.623-0.156l-1.561-0.363
			c-0.312-0.104-0.728-0.242-1.248-0.416l-0.364-0.104c-0.277-0.069-0.642-0.208-1.092-0.416l-0.676-0.26
			c0.034-0.45,0.086-0.918,0.156-1.404c0-0.242,0.017-0.45,0.052-0.624v-0.156c0.069-0.589,0.104-0.987,0.104-1.195l0.104-4.42
			h1.768v1.3c0,1.352,0.053,2.235,0.156,2.651c0.104,0.451,0.381,0.885,0.832,1.301c0.937,0.728,2.062,1.3,3.38,1.716
			c1.353,0.416,2.843,0.624,4.473,0.624c1.108,0,2.062-0.069,2.859-0.208c0.832-0.139,1.646-0.381,2.444-0.729
			c1.56-0.692,2.738-1.664,3.536-2.912c0.832-1.213,1.248-2.616,1.248-4.212c0-2.634-0.851-4.315-2.549-5.044
			c-1.663-0.658-4.299-1.178-7.903-1.56c-3.71-0.381-6.448-1.145-8.216-2.288c-1.872-1.213-2.809-3.501-2.809-6.864
			c0-1.732,0.312-3.293,0.937-4.68c0.624-1.317,1.56-2.479,2.808-3.484c1.213-0.936,2.669-1.664,4.368-2.184
			c0.624-0.208,1.525-0.398,2.704-0.572C521.643,0.07,522.683,0,523.896,0c3.154,0,6.413,0.729,9.775,2.185
			C533.325,3.328,533.135,4.334,533.101,5.2z"/>
		<path fill="#FFFFFF" d="M568.877,5.2l-0.104,1.56l-0.104,2.444H566.9V7.176c0-3.327-2.565-4.991-7.696-4.991
			c-1.906,0-3.483,0.277-4.731,0.832c-1.283,0.555-2.323,1.387-3.12,2.495c-0.798,1.11-1.196,2.358-1.196,3.744
			c0,2.219,0.606,3.796,1.82,4.732c1.178,0.971,2.86,1.612,5.044,1.924l6.448,0.729c2.184,0.208,3.865,0.693,5.044,1.455
			c0.901,0.556,1.646,1.422,2.236,2.601c0.589,1.214,0.884,2.427,0.884,3.64c0,1.872-0.364,3.588-1.092,5.148
			c-0.729,1.49-1.804,2.843-3.225,4.056c-1.422,1.179-3.086,2.08-4.992,2.704c-1.976,0.589-4.056,0.884-6.239,0.884
			c-1.561,0-2.704-0.069-3.433-0.208h-0.676l-0.312-0.052c-0.277-0.07-0.485-0.122-0.623-0.156l-1.561-0.363
			c-0.312-0.104-0.728-0.242-1.248-0.416l-0.364-0.104c-0.277-0.069-0.642-0.208-1.092-0.416l-0.676-0.26
			c0.034-0.45,0.086-0.918,0.156-1.404c0-0.242,0.017-0.45,0.052-0.624v-0.156c0.069-0.589,0.104-0.987,0.104-1.195l0.104-4.42
			h1.768v1.3c0,1.352,0.053,2.235,0.156,2.651c0.104,0.451,0.381,0.885,0.832,1.301c0.937,0.728,2.062,1.3,3.38,1.716
			c1.353,0.416,2.843,0.624,4.473,0.624c1.108,0,2.062-0.069,2.859-0.208c0.832-0.139,1.646-0.381,2.444-0.729
			c1.56-0.692,2.738-1.664,3.536-2.912c0.832-1.213,1.248-2.616,1.248-4.212c0-2.634-0.851-4.315-2.549-5.044
			c-1.663-0.658-4.299-1.178-7.903-1.56c-3.71-0.381-6.448-1.145-8.216-2.288c-1.872-1.213-2.809-3.501-2.809-6.864
			c0-1.732,0.312-3.293,0.937-4.68c0.624-1.317,1.56-2.479,2.808-3.484c1.213-0.936,2.669-1.664,4.368-2.184
			c0.624-0.208,1.525-0.398,2.704-0.572C557.419,0.07,558.459,0,559.673,0c3.154,0,6.413,0.729,9.775,2.185
			C569.102,3.328,568.911,4.334,568.877,5.2z"/>
		<path fill="#FFFFFF" d="M623.476,16.225c0.52,0.069,1.109,0.174,1.768,0.312c0.45,0.104,1.179,0.347,2.185,0.728
			c0.034,0.035,0.104,0.07,0.208,0.104c1.524,0.659,2.669,1.595,3.432,2.808c0.729,1.18,1.092,2.636,1.092,4.368
			c0,2.323-0.606,4.403-1.819,6.24c-1.283,1.872-3.034,3.294-5.252,4.264c-2.22,1.04-4.768,1.561-7.645,1.561l-1.976-0.053
			l-2.444-0.104h-1.976l-4.784,0.208v-1.144c0.832-0.45,1.404-0.798,1.716-1.04c0.208-0.174,0.398-0.469,0.572-0.885
			c0.068-0.554,0.104-1.248,0.104-2.08V5.616c0-0.937-0.104-1.629-0.312-2.08c-0.243-0.485-0.555-0.797-0.937-0.936
			c-0.034,0-0.121-0.034-0.26-0.104c-0.208-0.034-0.364-0.069-0.468-0.104c-0.347-0.069-0.624-0.104-0.832-0.104l-2.236-0.052V0.468
			l2.185,0.053l5.252,0.155l3.172-0.052l3.275-0.104h1.561l1.612-0.053c2.564,0,4.817,0.503,6.76,1.509
			c1.94,1.006,2.912,2.703,2.912,5.096c0,1.525-0.278,2.826-0.832,3.899c-0.556,1.11-1.475,2.099-2.756,2.965
			c-1.214,0.798-2.844,1.543-4.889,2.235C622.592,16.172,623.129,16.19,623.476,16.225z M615.676,15.548
			c3.293,0,5.702-0.554,7.228-1.664c1.525-1.108,2.288-2.912,2.288-5.407c0-3.952-2.548-5.929-7.644-5.929l-1.872,0.104
			c-0.14,0-0.399,0.035-0.78,0.104h-0.156c-0.174,0.035-0.347,0.053-0.52,0.053c-0.174,0.034-0.347,0.069-0.521,0.104l-0.155,2.34
			l-0.104,2.704l-0.052,4.316v3.172L615.676,15.548z M617.392,34.424c1.976,0,3.657-0.363,5.044-1.092
			c1.421-0.693,2.513-1.733,3.276-3.12c0.728-1.352,1.092-2.98,1.092-4.888c0-3.05-0.954-5.113-2.86-6.188
			c-1.907-1.073-4.455-1.611-7.644-1.611c-0.902,0-1.872,0.035-2.912,0.104v8.996l0.052,3.017l0.052,3.016v0.624l-0.104,0.78
			C614.878,34.303,616.213,34.424,617.392,34.424z"/>
		<path fill="#FFFFFF" d="M669.651,0.468l3.068,0.104l3.172,0.104l6.188-0.208v1.769l-2.027,0.052l-0.988,0.052
			c-0.243,0.035-0.555,0.14-0.936,0.312c-0.416,0.174-0.694,0.468-0.832,0.884c-0.174,0.451-0.261,1.144-0.261,2.08V20.28
			l-0.052,3.275l-0.052,1.925v0.728c0,0.104-0.018,0.26-0.052,0.468c0,0.243-0.019,0.416-0.053,0.521
			c-0.034,0.347-0.139,0.867-0.312,1.56c-0.139,0.764-0.416,1.526-0.832,2.288c-0.139,0.243-0.347,0.555-0.624,0.937
			c-0.347,0.416-0.624,0.745-0.832,0.987c-1.248,1.388-2.843,2.428-4.784,3.12c-2.011,0.693-4.264,1.04-6.76,1.04
			c-3.328,0-6.171-0.52-8.528-1.56c-2.392-1.074-3.97-2.496-4.731-4.265l-0.364-0.936l-0.312-0.936l-0.156-1.093l-0.104-1.3v-2.236
			c0-0.381-0.018-0.728-0.052-1.04v-0.987V18.72V5.616c0-0.937-0.122-1.629-0.364-2.08c-0.208-0.485-0.537-0.797-0.987-0.936
			l-0.729-0.208l-0.676-0.104l-2.288-0.052V0.468l1.56,0.053l2.185,0.052l3.691,0.104l1.561-0.052l2.184-0.052l3.692-0.104v1.769
			l-1.092,0.052c-1.145,0-1.959,0.052-2.444,0.156c-0.416,0.104-0.798,0.398-1.144,0.884c-0.243,0.451-0.364,1.214-0.364,2.288
			v15.652l0.052,2.235L653.323,26l0.053,1.404c0.034,0.174,0.138,0.503,0.312,0.988l0.052,0.26c0.208,0.728,0.502,1.335,0.885,1.819
			c0.797,1.11,1.976,1.942,3.535,2.496c1.63,0.624,3.467,0.937,5.513,0.937c2.045,0,3.917-0.312,5.615-0.937
			c1.664-0.554,2.895-1.386,3.692-2.496c0.589-0.865,1.022-2.062,1.3-3.588c0.277-1.594,0.416-3.812,0.416-6.655V5.616
			c0-0.832-0.087-1.508-0.26-2.028c-0.208-0.484-0.468-0.797-0.78-0.936l-0.832-0.26c-0.277-0.069-0.537-0.104-0.779-0.104
			l-2.393-0.052V0.468z"/>
		<path fill="#FFFFFF" d="M700.02,34.893h0.779h0.521c0.138-0.034,0.294-0.053,0.468-0.053c0.312,0,0.572-0.017,0.78-0.052
			c0.104-0.034,0.242-0.069,0.416-0.104c0.173,0,0.312-0.018,0.416-0.053c0.312-0.068,0.676-0.312,1.092-0.728
			c0.381-0.485,0.572-1.282,0.572-2.393V10.66V8.269L704.959,5.2l-0.052-2.392h-2.548c-0.416,0-0.815,0.018-1.196,0.052h-1.352
			h-1.301c-0.382,0.035-0.85,0.052-1.403,0.052c-0.624,0-1.04,0.018-1.248,0.052c-0.208,0.035-0.416,0.122-0.624,0.261
			c-0.104,0.069-0.226,0.295-0.364,0.676l-0.052,0.052l-0.208,1.352l-0.208,1.717l-0.156,1.768h-1.612l0.053-3.016
			c0-1.145-0.104-2.912-0.312-5.305l1.353,0.053l6.239,0.104l3.173,0.052h2.703h1.612h3.796l3.744-0.052l6.188-0.104l1.352-0.053
			V0.78v1.092c-0.035,0.174-0.052,0.364-0.052,0.572s-0.018,0.398-0.052,0.572c0,0.382-0.035,0.884-0.104,1.508
			c-0.035,0.242-0.052,0.45-0.052,0.624c0,0.312-0.018,0.52-0.052,0.624v1.456l0.052,1.56h-1.561l-0.208-2.912
			c0-0.485-0.052-0.849-0.155-1.092c0-0.069-0.019-0.156-0.053-0.26c0-0.139-0.018-0.226-0.052-0.261l-0.104-0.155l-0.156-0.312
			c-0.243-0.554-0.659-0.832-1.248-0.832l-2.548-0.052l-6.136-0.104l-0.104,3.483l-0.104,4.368v20.852
			c0,1.214,0.189,2.063,0.571,2.549c0.381,0.382,1.005,0.624,1.872,0.728l2.601,0.104v1.768l-3.692-0.104l-3.744-0.104l-3.691,0.104
			l-3.744,0.104V34.893z"/>
		<path fill="#FFFFFF" d="M745.362,34.216l2.185,0.053l2.86-0.053l2.392-0.052h0.728h0.572c0.173-0.034,0.347-0.052,0.521-0.052
			l1.664-0.208c0.936-0.104,1.94-0.312,3.016-0.624l1.56-5.98h1.664c-0.139,0.902-0.45,3.606-0.936,8.112l-0.104,0.832l-1.508,0.208
			l-1.092,0.104l-1.612,0.053h-0.728c-0.312,0-0.555,0.017-0.729,0.052l-2.496-0.104l-3.535-0.052l-8.009-0.104l-1.768,0.052
			l-2.132,0.104l-1.924,0.104v-1.144c0.762-0.416,1.316-0.763,1.664-1.04c0.208-0.174,0.397-0.503,0.571-0.988
			c0.104-0.416,0.156-1.074,0.156-1.977V5.616c0-0.937-0.122-1.629-0.364-2.08c-0.208-0.45-0.503-0.762-0.884-0.936
			c-0.347-0.139-0.867-0.261-1.56-0.364l-2.236-0.052V0.468l3.744,0.104l3.691,0.104l3.744-0.104l3.692-0.104v1.717h-0.937
			l-1.092,0.104l-0.988,0.052c-0.312,0.07-0.642,0.174-0.987,0.312c-0.382,0.174-0.643,0.503-0.78,0.988
			c-0.174,0.52-0.26,1.179-0.26,1.976V25.48v2.235v2.652l0.052,2.444v0.52v0.416l-0.052,0.364L745.362,34.216z"/>
		<path fill="#FFFFFF" d="M783.635,25.636v3.536c0,2.427,0.018,3.692,0.052,3.796v0.572l0.053,0.572
			c0.208,0,0.605,0.018,1.195,0.052c0.521,0.035,0.814,0.052,0.884,0.052c0.658,0.035,1.335,0.053,2.028,0.053l3.692,0.104
			c2.01,0,3.483-0.052,4.42-0.156c1.005-0.104,2.045-0.363,3.12-0.779l0.832-3.12l0.468-2.444h1.716
			c-0.451,3.259-0.676,6.102-0.676,8.528c-1.977,0.208-3.831,0.312-5.564,0.312l-3.483-0.052l-4.836-0.104l-6.5-0.104l-5.252,0.156
			l-2.185,0.052v-1.768h0.676h0.729c0.138-0.034,0.277-0.053,0.416-0.053l1.248-0.155c0.416-0.034,0.866-0.295,1.352-0.78
			c0.416-0.485,0.624-1.282,0.624-2.393V5.616c0-0.937-0.122-1.629-0.363-2.08c-0.208-0.45-0.503-0.762-0.885-0.936
			c-0.347-0.139-0.866-0.261-1.56-0.364l-2.236-0.052V0.468l3.9,0.104l3.38,0.104l7.488-0.104l7.436-0.104l1.82,0.104l3.796,0.156
			c-0.07,0.242-0.139,0.52-0.208,0.832c-0.104,0.312-0.191,0.59-0.26,0.832c-0.14,0.555-0.243,1.144-0.312,1.768l-0.208,2.028
			l-0.052,2.34h-1.716c0-1.733-0.087-3.293-0.261-4.68c-1.109-0.416-2.235-0.693-3.38-0.832l-2.132-0.156l-2.704-0.104
			c-2.53,0-4.68,0.104-6.447,0.312l-0.053,4.315l-0.052,4.368V16.9h0.832c0.381,0,0.693,0.018,0.936,0.052l2.704,0.156h2.133
			c0.312,0,0.605-0.018,0.884-0.053h0.936l1.196-0.104c0.346-0.034,0.728-0.138,1.144-0.312c0.45-0.174,0.745-0.434,0.885-0.78
			l0.208-0.676l0.104-0.937l0.104-1.092v-0.884h1.716l-0.156,5.876l0.156,5.928h-1.716v-0.884l-0.104-1.092
			c0-0.832-0.19-1.474-0.572-1.925c-0.242-0.346-0.884-0.605-1.924-0.779l-1.976-0.104l-3.017-0.052
			c-2.046,0-3.535,0.069-4.472,0.208V25.636z"/>
		<path fill="#FFFFFF" d="M840.782,30.264l1.819,2.549c0.382,0.485,0.901,0.936,1.561,1.352c0.589,0.312,1.438,0.555,2.548,0.729
			v1.768h-0.832h-0.624c-0.174-0.035-0.33-0.052-0.468-0.052c-0.416,0-0.971-0.053-1.664-0.156l-3.588,0.208l-8.685-12.168
			c-1.63-2.392-3.38-4.576-5.252-6.552l0.26-0.832l1.977,0.104c2.01,0,3.674-0.329,4.992-0.987c1.316-0.624,2.374-1.561,3.172-2.809
			c0.728-1.248,1.092-2.704,1.092-4.368c0-1.352-0.312-2.548-0.936-3.588c-0.59-1.005-1.509-1.819-2.757-2.443
			c-0.45-0.208-1.092-0.398-1.924-0.572c-0.174-0.034-0.347-0.069-0.52-0.104c-0.174,0-0.347-0.017-0.521-0.052
			c-0.242-0.034-0.676-0.052-1.3-0.052c-1.699,0-3.467,0.33-5.304,0.988c0,0.485-0.018,0.971-0.052,1.455
			c-0.035,0.521-0.053,1.023-0.053,1.509c0,1.49-0.018,2.548-0.052,3.172c-0.035,0.936-0.087,1.768-0.156,2.496v19.655
			c0,0.937,0.121,1.63,0.364,2.08c0.277,0.486,0.606,0.798,0.988,0.937c0.208,0.069,0.484,0.139,0.832,0.208l1.195,0.052
			l1.664,0.104v1.768l-3.691-0.104l-3.744-0.104l-3.692,0.104l-3.744,0.104v-1.768h0.729h0.676c0.139-0.034,0.277-0.053,0.416-0.053
			l1.248-0.155c0.416-0.034,0.866-0.295,1.353-0.78c0.416-0.485,0.624-1.282,0.624-2.393V5.616c0-0.937-0.104-1.629-0.312-2.08
			c-0.243-0.485-0.555-0.797-0.936-0.936c-0.035,0-0.122-0.034-0.261-0.104c-0.208-0.034-0.363-0.069-0.468-0.104
			c-0.347-0.069-0.624-0.104-0.832-0.104l-2.236-0.052V0.468l2.185,0.053l5.252,0.155l3.484-0.104l3.275-0.104l2.912-0.052
			c1.733,0,3.258,0.122,4.576,0.364c1.386,0.243,2.652,0.642,3.796,1.196c2.184,1.074,3.276,3.119,3.276,6.136
			c0,2.6-0.867,4.767-2.601,6.5s-4.229,2.964-7.488,3.691L840.782,30.264z"/>
	</g>
</g>
</svg>
